<svg viewBox="0 0 800 500" xmlns="http://www.w3.org/2000/svg">
  <!-- Background with subtle gradient -->
  <defs>
    <linearGradient id="bg-gradient" x1="0%" y1="0%" x2="0%" y2="100%">
      <stop offset="0%" style="stop-color:#f8f9fa;stop-opacity:1" />
      <stop offset="100%" style="stop-color:#ffffff;stop-opacity:1" />
    </linearGradient>
    <!-- Shadow filter -->
    <filter id="shadow" x="-20%" y="-20%" width="140%" height="140%">
      <feGaussianBlur in="SourceAlpha" stdDeviation="2"/>
      <feOffset dx="2" dy="2" result="offsetblur"/>
      <feComponentTransfer>
        <feFuncA type="linear" slope="0.2"/>
      </feComponentTransfer>
      <feMerge>
        <feMergeNode/>
        <feMergeNode in="SourceGraphic"/>
      </feMerge>
    </filter>
  </defs>

  <!-- Background -->
  <rect width="800" height="500" fill="url(#bg-gradient)"/>
  
  <!-- Title with decorative underline -->
  <g transform="translate(400,50)">
    <text text-anchor="middle" font-size="28" font-weight="bold"  fill="#2c3e50">Types of Plants</text>
    <path d="M-100,10 H100" stroke="#2c3e50" stroke-width="2" stroke-linecap="round"/>
  </g>

  <!-- Flowering Plants Section -->
  <g transform="translate(250,180)">
    <text x="0" y="-30" font-size="22" font-weight="bold" fill="#2196f3" filter="url(#shadow)">Flowering Plants</text>
    
    <!-- Apple Tree -->
    <g transform="translate(-80,70)">
      <g filter="url(#shadow)">
        <!-- Tree crown with more natural shape -->
        <path d="M0,-100 C-40,-90 -50,-60 -30,-40 C-40,-30 -40,-10 -20,0 C-10,5 10,5 20,0 C40,-10 40,-30 30,-40 C50,-60 40,-90 0,-100" fill="#4caf50"/>
        <rect x="-8" y="0" width="16" height="45" fill="#8b4513"/>
      </g>
      <text x="0" y="70" text-anchor="middle" font-size="14" fill="#333">Apple Trees</text>
    </g>

    <!-- Wildflower -->
    <g transform="translate(80,70)">
      <g filter="url(#shadow)">
        <!-- Flower with petals -->
        <circle cx="0" cy="-10" r="8" fill="#ffd700"/> <!-- Center -->
        <path d="M0,-30 C10,-25 10,-15 0,-10 C-10,-15 -10,-25 0,-30" fill="#ff9ecd"/> <!-- Petal -->
        <path d="M0,-30 C10,-25 10,-15 0,-10 C-10,-15 -10,-25 0,-30" fill="#ff9ecd" transform="rotate(72, 0, -10)"/> <!-- Petal -->
        <path d="M0,-30 C10,-25 10,-15 0,-10 C-10,-15 -10,-25 0,-30" fill="#ff9ecd" transform="rotate(144, 0, -10)"/> <!-- Petal -->
        <path d="M0,-30 C10,-25 10,-15 0,-10 C-10,-15 -10,-25 0,-30" fill="#ff9ecd" transform="rotate(216, 0, -10)"/> <!-- Petal -->
        <path d="M0,-30 C10,-25 10,-15 0,-10 C-10,-15 -10,-25 0,-30" fill="#ff9ecd" transform="rotate(288, 0, -10)"/> <!-- Petal -->
        <rect x="-3" y="10" width="6" height="35" fill="#4caf50"/>
      </g>
      <text x="0" y="70" text-anchor="middle" font-size="14" fill="#333">Wildflowers</text>
    </g>
  </g>

  <!-- Non-flowering Plants Section -->
  <g transform="translate(550,180)">
    <text x="0" y="-30" font-size="22" font-weight="bold" fill="#4caf50" filter="url(#shadow)">Non-flowering Plants</text>
    
    <!-- Pine Tree -->
    <g transform="translate(-80,70)">
      <g filter="url(#shadow)">
        <!-- Multiple triangle layers for fuller appearance -->
        <path d="M0,-80 L30,-20 L-30,-20 Z" fill="#2e7d32"/>
        <path d="M0,-60 L40,0 L-40,0 Z" fill="#1b5e20"/>
        <path d="M0,-40 L50,20 L-50,20 Z" fill="#2e7d32"/>
        <rect x="-8" y="20" width="16" height="40" fill="#8b4513"/>
      </g>
      <text x="0" y="80" text-anchor="middle" font-size="14" fill="#333">Pine Trees</text>
      <text x="0" y="95" text-anchor="middle" font-size="12" fill="#666">(cones)</text>
    </g>

    <!-- Fern -->
    <g transform="translate(80,70)">
      <g filter="url(#shadow)">
        <!-- More detailed fern frond -->
        <path d="M0,-40 C-30,-30 -40,-10 -30,0 M0,-40 C30,-30 40,-10 30,0" stroke="#4caf50" stroke-width="3" fill="none"/>
        <path d="M-30,-20 C-20,-10 -10,-10 0,-20 M0,-20 C10,-10 20,-10 30,-20" stroke="#4caf50" stroke-width="2" fill="none"/>
          <path d="M-30,-5 C-20,5 -10,5 0,-5 M0,-5 C10,5 20,5 30,-5" 
        stroke="#4caf50" stroke-width="2" fill="none"/>
      </g>
      <text x="0" y="70" text-anchor="middle" font-size="14" fill="#333">Ferns</text>
      <text x="0" y="85" text-anchor="middle" font-size="12" fill="#666">(spores)</text>
    </g>
  </g>

  <!-- Size Comparison Section -->
  <g transform="translate(400,420)">
    <text x="0" y="-20" text-anchor="middle" font-size="22" font-weight="bold" fill="#9c27b0" filter="url(#shadow)">By Size</text>
    
    <!-- Tree -->
    <g transform="translate(-200,0)">
      <g filter="url(#shadow)">
        <path d="M0,-70 C-40,-50 -45,-20 -20,0 C-10,5 10,5 20,0 C45,-20 40,-50 0,-70" fill="#4caf50"/>
        <rect x="-8" y="0" width="16" height="35" fill="#8b4513"/>
      </g>
      <text x="0" y="50" text-anchor="middle" font-size="14" fill="#333">Trees</text>
      <text x="0" y="65" text-anchor="middle" font-size="12" fill="#666">(tall, woody stems)</text>
    </g>

    <!-- Shrub -->
    <g transform="translate(0,0)">
      <g filter="url(#shadow)">
        <path d="M-30,-40 C-50,-20 -50,0 -30,0 C-20,5 -10,5 0,0 C10,5 20,5 30,0 C50,0 50,-20 30,-40 C15,-50 -15,-50 -30,-40" fill="#4caf50"/>
      </g>
      <text x="0" y="50" text-anchor="middle" font-size="14" fill="#333">Shrubs</text>
      <text x="0" y="65" text-anchor="middle" font-size="12" fill="#666">(smaller woody plants)</text>
    </g>

    <!-- Herb -->
    <g transform="translate(200,0)">
      <g filter="url(#shadow)">
        <path d="M0,-40 C-15,-30 -15,-10 0,0 C15,-10 15,-30 0,-40" fill="#81c784"/>
        <path d="M-10,-30 C-5,-20 -5,-10 0,-5 C5,-10 5,-20 10,-30" fill="#81c784"/>
      </g>
      <text x="0" y="50" text-anchor="middle" font-size="14" fill="#333">Herbs</text>
      <text x="0" y="65" text-anchor="middle" font-size="12" fill="#666">(soft green stems)</text>
    </g>
  </g>
</svg>