<?xml version="1.0" encoding="utf-8"?>
<!-- Generator: Adobe Illustrator 27.5.0, SVG Export Plug-In . SVG Version: 6.00 Build 0)  -->
<svg version="1.1" xmlns="http://www.w3.org/2000/svg" xmlns:xlink="http://www.w3.org/1999/xlink" x="0px" y="0px"
	 viewBox="0 0 500 500" style="enable-background:new 0 0 500 500;" xml:space="preserve">
<g id="BACKGROUND">
	<g>
		<rect style="fill:#50191B;" width="500" height="500"/>
		<g>
			<g style="opacity:0.3;">
				<path style="fill:#50191B;" d="M97.252,233.373c36.692,21.902,70.168,54.71,112.802,57.605
					c37.657,2.557,72.923-19.703,99.015-46.976c26.092-27.273,45.892-60.023,71.733-87.532c17.114-18.218,36.8-34.016,58.292-46.779
					C457.508,98.757,479.091,90.071,500,90.008V0H393.962c-7.932,13.314-17.298,25.55-29.063,35.701
					c-23.45,20.234-55.431,30.238-86.232,26.975c-19.275-2.042-37.645-8.952-56.418-13.779c-18.773-4.827-38.973-7.516-57.291-1.179
					c-22.662,7.84-38.46,27.88-57.371,42.624c-20.068,15.645-45.158,25.734-70.582,24.661c-12.905-0.544-25.799-4.245-37.005-10.65
					v124.606c12.353-8.291,26.522-13.422,41.428-13.629C61.237,215.055,80.241,223.219,97.252,233.373z"/>
				<path style="fill:#50191B;" d="M453.831,426.456c-30.225-5.64-51.615-34.326-81.36-42.113
					c-20.652-5.406-42.638,0.044-62.374,8.182c-19.736,8.138-38.415,18.983-58.878,25.066c-21.691,6.448-44.594,7.313-67.212,8.042
					c-17.7,0.57-36.498,0.818-51.718-8.238c-15.787-9.393-24.52-26.829-34.832-42.032C83.38,354.61,64.765,336.577,42.31,325.411
					C29.157,318.87,14.636,314.819,0,313.904V500h500v-80.411C485.179,425.683,469.39,429.359,453.831,426.456z"/>
			</g>
			<g style="opacity:0.5;">
				<g>
					<g>
						<g>
							<path style="fill:#FFFFFF;" d="M438.03,83.372c-0.636-2.161-1.272-4.323-1.908-6.484c-0.528-1.793-2.432-2.918-4.257-2.417
								c-1.783,0.49-2.947,2.457-2.417,4.257c0.636,2.161,1.272,4.323,1.908,6.485c0.528,1.793,2.432,2.918,4.257,2.417
								C437.396,87.139,438.559,85.172,438.03,83.372L438.03,83.372z"/>
						</g>
					</g>
					<g>
						<g>
							<path style="fill:#FFFFFF;" d="M451.279,83.853c-0.354-1.201-0.708-2.401-1.062-3.602c-0.511-1.735-2.456-3-4.257-2.417
								c-1.758,0.569-2.965,2.397-2.417,4.257c0.354,1.201,0.708,2.401,1.061,3.602c0.511,1.735,2.456,3,4.257,2.417
								C450.621,87.541,451.827,85.713,451.279,83.853L451.279,83.853z"/>
						</g>
					</g>
					<g>
						<g>
							<path style="fill:#FFFFFF;" d="M464.142,89.772c-0.583-1.446-1.166-2.893-1.749-4.339c-0.674-1.673-2.337-3.038-4.257-2.417
								c-1.617,0.523-3.142,2.459-2.417,4.257c0.583,1.446,1.166,2.893,1.748,4.339c0.674,1.673,2.338,3.038,4.257,2.417
								C463.342,93.505,464.866,91.57,464.142,89.772L464.142,89.772z"/>
						</g>
					</g>
					<g>
						<g>
							<path style="fill:#FFFFFF;" d="M455,99.669c-0.365-0.884-0.73-1.769-1.095-2.653c-0.359-0.87-0.745-1.573-1.59-2.068
								c-0.742-0.434-1.835-0.618-2.667-0.349c-0.837,0.271-1.645,0.79-2.068,1.59c-0.404,0.765-0.695,1.827-0.349,2.667
								c0.365,0.884,0.73,1.769,1.095,2.653c0.359,0.87,0.745,1.573,1.59,2.068c0.742,0.434,1.835,0.618,2.667,0.349
								c0.837-0.271,1.645-0.79,2.068-1.59C455.055,101.571,455.347,100.508,455,99.669L455,99.669z"/>
						</g>
					</g>
					<g>
						<g>
							<path style="fill:#FFFFFF;" d="M438.371,103.581c4.453,0,4.461-6.921,0-6.921C433.918,96.66,433.91,103.581,438.371,103.581
								L438.371,103.581z"/>
						</g>
					</g>
					<g>
						<g>
							<path style="fill:#FFFFFF;" d="M422.44,87.996c0.917,2.966,1.834,5.932,2.751,8.899c1.312,4.242,7.995,2.432,6.674-1.84
								c-0.917-2.966-1.834-5.932-2.751-8.899C427.802,81.914,421.119,83.724,422.44,87.996L422.44,87.996z"/>
						</g>
					</g>
					<g>
						<g>
							<path style="fill:#FFFFFF;" d="M428.433,106.274c0.811,3.017,1.893,5.914,3.159,8.768c0.758,1.709,3.25,2.11,4.735,1.242
								c1.761-1.03,2.002-3.02,1.241-4.735c-1.019-2.298-1.809-4.689-2.461-7.115C433.952,100.138,427.273,101.961,428.433,106.274
								L428.433,106.274z"/>
						</g>
					</g>
					<g>
						<g>
							<path style="fill:#FFFFFF;" d="M444.851,116.46c0.512,1.206,1.024,2.412,1.536,3.619c0.314,0.74,1.334,1.388,2.068,1.59
								c0.828,0.228,1.931,0.125,2.667-0.349c0.739-0.476,1.389-1.186,1.59-2.068c0.221-0.971,0.036-1.76-0.349-2.667
								c-0.512-1.206-1.024-2.413-1.536-3.619c-0.314-0.74-1.334-1.388-2.068-1.59c-0.828-0.228-1.931-0.125-2.667,0.349
								c-0.739,0.476-1.389,1.186-1.59,2.068C444.281,114.764,444.466,115.554,444.851,116.46L444.851,116.46z"/>
						</g>
					</g>
					<g>
						<g>
							<path style="fill:#FFFFFF;" d="M453.147,113.086c0.729,2.202,1.652,4.345,2.768,6.378c0.899,1.637,3.153,2.167,4.735,1.242
								c1.652-0.966,2.144-3.091,1.241-4.735c-0.93-1.693-1.469-2.909-2.07-4.725c-0.568-1.715-2.415-3.013-4.257-2.417
								C453.854,109.382,452.538,111.246,453.147,113.086L453.147,113.086z"/>
						</g>
					</g>
					<g>
						<g>
							<path style="fill:#FFFFFF;" d="M458.432,101.966c0.147,0.322,0.294,0.644,0.441,0.966c0.339,0.743,1.313,1.382,2.068,1.59
								c0.828,0.228,1.931,0.125,2.667-0.349c0.739-0.476,1.389-1.186,1.59-2.068c0.218-0.958,0.058-1.777-0.349-2.667
								c-0.147-0.322-0.294-0.644-0.441-0.966c-0.339-0.743-1.313-1.382-2.068-1.59c-0.828-0.228-1.931-0.125-2.667,0.349
								c-0.739,0.476-1.389,1.186-1.59,2.068C457.865,100.258,458.025,101.076,458.432,101.966L458.432,101.966z"/>
						</g>
					</g>
					<g>
						<g>
							<path style="fill:#FFFFFF;" d="M448.692,70.865c0.13,0.797,0.261,1.593,0.391,2.39c0.132,0.804,0.917,1.674,1.59,2.068
								c0.742,0.434,1.835,0.618,2.667,0.349c0.837-0.271,1.645-0.79,2.068-1.59c0.46-0.871,0.507-1.698,0.349-2.667
								c-0.13-0.797-0.261-1.593-0.391-2.39c-0.132-0.804-0.917-1.674-1.59-2.068c-0.742-0.434-1.835-0.618-2.667-0.349
								c-0.837,0.271-1.645,0.79-2.068,1.59C448.581,69.069,448.534,69.896,448.692,70.865L448.692,70.865z"/>
						</g>
					</g>
					<g>
						<g>
							<path style="fill:#FFFFFF;" d="M435.291,70.732c0.294,0.644,0.588,1.288,0.883,1.932c0.339,0.743,1.313,1.382,2.068,1.59
								c0.828,0.228,1.931,0.125,2.667-0.349c0.739-0.476,1.389-1.186,1.59-2.068c0.218-0.959,0.058-1.777-0.349-2.667
								c-0.294-0.644-0.588-1.288-0.883-1.932c-0.339-0.743-1.313-1.382-2.068-1.59c-0.828-0.228-1.932-0.125-2.667,0.349
								c-0.739,0.476-1.389,1.186-1.59,2.068C434.724,69.024,434.884,69.842,435.291,70.732L435.291,70.732z"/>
						</g>
					</g>
					<g>
						<g>
							<path style="fill:#FFFFFF;" d="M423.921,75.267c4.453,0,4.461-6.921,0-6.921C419.467,68.346,419.46,75.267,423.921,75.267
								L423.921,75.267z"/>
						</g>
					</g>
					<g>
						<g>
							<path style="fill:#FFFFFF;" d="M466.009,112.585c0.349,1.359,0.699,2.717,1.048,4.076c0.451,1.753,2.5,2.986,4.257,2.417
								c1.809-0.586,2.9-2.378,2.417-4.257c-0.349-1.359-0.699-2.717-1.048-4.076c-0.451-1.754-2.5-2.986-4.257-2.417
								C466.616,108.913,465.526,110.706,466.009,112.585L466.009,112.585z"/>
						</g>
					</g>
					<g>
						<g>
							<path style="fill:#FFFFFF;" d="M461.086,73.887c0.445,1.267,0.89,2.534,1.335,3.801c0.599,1.704,2.393,3.02,4.257,2.417
								c1.683-0.545,3.059-2.428,2.417-4.257c-0.445-1.267-0.89-2.534-1.335-3.801c-0.599-1.704-2.393-3.02-4.257-2.417
								C461.82,70.175,460.444,72.059,461.086,73.887L461.086,73.887z"/>
						</g>
					</g>
					<g>
						<g>
							<path style="fill:#FFFFFF;" d="M470.222,97.225c0.15,0.386,0.299,0.772,0.449,1.158c0.336,0.866,0.761,1.583,1.59,2.068
								c0.742,0.434,1.835,0.618,2.667,0.349c0.837-0.271,1.645-0.79,2.068-1.59c0.41-0.775,0.68-1.813,0.349-2.667
								c-0.15-0.386-0.299-0.772-0.449-1.158c-0.336-0.866-0.762-1.583-1.59-2.068c-0.742-0.434-1.835-0.618-2.667-0.349
								c-0.837,0.271-1.645,0.79-2.068,1.59C470.161,95.334,469.891,96.371,470.222,97.225L470.222,97.225z"/>
						</g>
					</g>
				</g>
				<g>
					<g>
						<g>
							<path style="fill:#FFFFFF;" d="M80.44,160.868c1.001-2.001,2.003-4.002,3.004-6.003c0.83-1.659,0.441-3.722-1.233-4.702
								c-1.524-0.891-3.868-0.433-4.702,1.233c-1.001,2.001-2.003,4.002-3.004,6.003c-0.83,1.659-0.441,3.723,1.233,4.702
								C77.262,162.992,79.607,162.534,80.44,160.868L80.44,160.868z"/>
						</g>
					</g>
					<g>
						<g>
							<path style="fill:#FFFFFF;" d="M89.74,170.188c0.556-1.112,1.112-2.224,1.668-3.335c0.803-1.606,0.481-3.796-1.233-4.702
								c-1.558-0.823-3.844-0.484-4.702,1.233c-0.556,1.112-1.112,2.224-1.668,3.335c-0.803,1.606-0.481,3.796,1.233,4.702
								C86.596,172.243,88.882,171.904,89.74,170.188L89.74,170.188z"/>
						</g>
					</g>
					<g>
						<g>
							<path style="fill:#FFFFFF;" d="M95.423,182.375c0.556-1.445,1.112-2.891,1.668-4.336c0.647-1.681-0.713-3.843-2.4-4.227
								c-1.965-0.448-3.535,0.6-4.227,2.4c-0.556,1.445-1.112,2.891-1.668,4.336c-0.647,1.681,0.713,3.843,2.4,4.227
								C93.162,185.223,94.731,184.175,95.423,182.375L95.423,182.375z"/>
						</g>
					</g>
					<g>
						<g>
							<path style="fill:#FFFFFF;" d="M82.082,183.376c0.334-0.889,0.667-1.779,1.001-2.668c0.297-0.791,0.065-1.945-0.346-2.648
								c-0.417-0.713-1.235-1.393-2.054-1.579c-0.88-0.2-1.867-0.157-2.648,0.346c-0.79,0.509-1.249,1.174-1.579,2.054
								c-0.333,0.89-0.667,1.779-1.001,2.668c-0.297,0.791-0.065,1.945,0.346,2.648c0.417,0.713,1.234,1.393,2.054,1.579
								c0.88,0.2,1.867,0.157,2.648-0.346C81.293,184.92,81.752,184.255,82.082,183.376L82.082,183.376z"/>
						</g>
					</g>
					<g>
						<g>
							<path style="fill:#FFFFFF;" d="M69.429,176.559c4.422,0,4.43-6.873,0-6.873C65.006,169.686,64.999,176.559,69.429,176.559
								L69.429,176.559z"/>
						</g>
					</g>
					<g>
						<g>
							<path style="fill:#FFFFFF;" d="M66.145,153.385c-1.342,2.776-2.684,5.551-4.026,8.327c-0.808,1.67-0.457,3.714,1.233,4.702
								c1.506,0.881,3.89,0.445,4.702-1.233c1.342-2.776,2.684-5.551,4.026-8.327c0.807-1.67,0.457-3.714-1.233-4.702
								C69.34,151.271,66.956,151.707,66.145,153.385L66.145,153.385z"/>
						</g>
					</g>
					<g>
						<g>
							<path style="fill:#FFFFFF;" d="M58.123,170.721c-1.448,2.729-2.674,5.572-3.682,8.492c-0.605,1.754,0.692,3.758,2.4,4.227
								c1.889,0.519,3.62-0.639,4.227-2.4c0.819-2.372,1.813-4.634,2.989-6.851C66.13,170.285,60.199,166.808,58.123,170.721
								L58.123,170.721z"/>
						</g>
					</g>
					<g>
						<g>
							<path style="fill:#FFFFFF;" d="M63.113,189.22c-0.445,1.223-0.889,2.446-1.334,3.669c-0.615,1.692,0.69,3.838,2.4,4.227
								c1.938,0.441,3.569-0.588,4.227-2.4c0.445-1.223,0.89-2.446,1.334-3.669c0.615-1.692-0.69-3.838-2.4-4.227
								C65.403,186.378,63.772,187.408,63.113,189.22L63.113,189.22z"/>
						</g>
					</g>
					<g>
						<g>
							<path style="fill:#FFFFFF;" d="M71.465,192.402c-0.965,2.102-1.779,4.248-2.348,6.491c-0.441,1.74,0.565,3.809,2.4,4.227
								c1.785,0.407,3.755-0.536,4.227-2.4c0.43-1.696,1.03-3.488,1.655-4.849c0.774-1.686,0.479-3.701-1.233-4.702
								C74.686,190.303,72.243,190.707,71.465,192.402L71.465,192.402z"/>
						</g>
					</g>
					<g>
						<g>
							<path style="fill:#FFFFFF;" d="M82.792,187.886c-0.111,0.334-0.222,0.667-0.334,1.001c-0.568,1.707,0.656,3.83,2.4,4.227
								c1.896,0.432,3.619-0.573,4.227-2.4c0.111-0.334,0.222-0.667,0.334-1.001c0.569-1.707-0.657-3.83-2.4-4.227
								C85.123,185.053,83.401,186.058,82.792,187.886L82.792,187.886z"/>
						</g>
					</g>
					<g>
						<g>
							<path style="fill:#FFFFFF;" d="M96.814,158.714c-0.445,0.667-0.889,1.334-1.334,2.001c-1,1.499-0.342,3.87,1.233,4.702
								c1.728,0.913,3.635,0.367,4.702-1.233c0.445-0.667,0.889-1.334,1.334-2.001c0.999-1.499,0.342-3.87-1.233-4.702
								C99.787,156.568,97.88,157.114,96.814,158.714L96.814,158.714z"/>
						</g>
					</g>
					<g>
						<g>
							<path style="fill:#FFFFFF;" d="M87.128,149.528c-0.222,0.667-0.445,1.334-0.667,2.001c-0.569,1.707,0.657,3.83,2.4,4.227
								c1.897,0.432,3.618-0.573,4.227-2.4c0.222-0.667,0.445-1.334,0.667-2.001c0.569-1.707-0.656-3.83-2.4-4.227
								C89.459,146.696,87.737,147.701,87.128,149.528L87.128,149.528z"/>
						</g>
					</g>
					<g>
						<g>
							<path style="fill:#FFFFFF;" d="M78.101,146.207c4.422,0,4.43-6.873,0-6.873C73.678,139.334,73.671,146.207,78.101,146.207
								L78.101,146.207z"/>
						</g>
					</g>
					<g>
						<g>
							<path style="fill:#FFFFFF;" d="M81.147,200.745c-0.666,1.223-1.332,2.447-1.998,3.671c-0.859,1.579-0.442,3.817,1.233,4.702
								c1.606,0.848,3.784,0.453,4.702-1.233c0.666-1.223,1.332-2.447,1.998-3.671c0.859-1.578,0.442-3.817-1.233-4.702
								C84.243,198.664,82.065,199.059,81.147,200.745L81.147,200.745z"/>
						</g>
					</g>
					<g>
						<g>
							<path style="fill:#FFFFFF;" d="M103.771,169.301c-0.534,1.222-1.069,2.444-1.604,3.666c-0.384,0.878-0.612,1.685-0.347,2.648
								c0.22,0.797,0.836,1.661,1.579,2.054c1.487,0.786,3.933,0.526,4.702-1.233c0.535-1.222,1.069-2.444,1.604-3.666
								c0.384-0.878,0.612-1.685,0.346-2.648c-0.219-0.797-0.836-1.661-1.579-2.054C106.985,167.282,104.54,167.542,103.771,169.301
								L103.771,169.301z"/>
						</g>
					</g>
					<g>
						<g>
							<path style="fill:#FFFFFF;" d="M94.26,193.26c-0.153,0.382-0.305,0.764-0.458,1.145c-0.31,0.774-0.056,1.96,0.346,2.648
								c0.417,0.713,1.234,1.393,2.054,1.579c0.88,0.2,1.867,0.157,2.648-0.346c0.798-0.515,1.229-1.177,1.579-2.054
								c0.153-0.382,0.306-0.764,0.458-1.145c0.31-0.774,0.056-1.96-0.346-2.648c-0.417-0.713-1.234-1.393-2.054-1.579
								c-0.88-0.2-1.867-0.157-2.648,0.346C95.041,191.721,94.611,192.383,94.26,193.26L94.26,193.26z"/>
						</g>
					</g>
				</g>
				<g>
					<g>
						<g>
							<path style="fill:#FFFFFF;" d="M40.662,303.132c-1.561-1.46-3.121-2.919-4.682-4.379c-1.254-1.173-3.415-1.336-4.641,0
								c-1.17,1.274-1.339,3.389,0,4.641c1.561,1.46,3.121,2.919,4.682,4.379c1.254,1.173,3.415,1.336,4.641,0
								C41.832,306.499,42.002,304.384,40.662,303.132L40.662,303.132z"/>
						</g>
					</g>
					<g>
						<g>
							<path style="fill:#FFFFFF;" d="M51.719,297.143c-0.867-0.811-1.735-1.621-2.602-2.432c-1.255-1.173-3.415-1.336-4.641,0
								c-1.169,1.274-1.34,3.389,0,4.641c0.867,0.811,1.735,1.621,2.602,2.432c1.255,1.173,3.415,1.336,4.641,0
								C52.888,300.511,53.059,298.395,51.719,297.143L51.719,297.143z"/>
						</g>
					</g>
					<g>
						<g>
							<path style="fill:#FFFFFF;" d="M64.414,295.271c-1.173-0.901-2.345-1.802-3.518-2.703c-0.627-0.482-1.809-0.529-2.529-0.331
								c-0.761,0.21-1.586,0.798-1.961,1.508c-0.403,0.762-0.604,1.684-0.331,2.529c0.281,0.869,0.791,1.41,1.508,1.961
								c1.173,0.901,2.345,1.802,3.518,2.703c0.627,0.481,1.809,0.529,2.529,0.331c0.761-0.21,1.586-0.798,1.961-1.508
								c0.402-0.762,0.604-1.684,0.331-2.529C65.641,296.364,65.131,295.822,64.414,295.271L64.414,295.271z"/>
						</g>
					</g>
					<g>
						<g>
							<path style="fill:#FFFFFF;" d="M61.711,307.76c-0.724-0.547-1.448-1.093-2.172-1.64c-0.634-0.479-1.802-0.531-2.529-0.331
								c-0.761,0.21-1.586,0.798-1.961,1.508c-0.403,0.762-0.604,1.684-0.331,2.529c0.28,0.866,0.788,1.417,1.508,1.961
								c0.724,0.547,1.448,1.093,2.172,1.64c0.634,0.478,1.802,0.531,2.529,0.331c0.761-0.21,1.586-0.798,1.961-1.508
								c0.402-0.762,0.604-1.684,0.331-2.529C62.94,308.856,62.432,308.304,61.711,307.76L61.711,307.76z"/>
						</g>
					</g>
					<g>
						<g>
							<path style="fill:#FFFFFF;" d="M48.97,319.895c4.224,0,4.231-6.564,0-6.564C44.746,313.331,44.739,319.895,48.97,319.895
								L48.97,319.895z"/>
						</g>
					</g>
					<g>
						<g>
							<path style="fill:#FFFFFF;" d="M30.078,314.341c2.178,1.982,4.355,3.964,6.533,5.945c1.311,1.193,3.346,1.295,4.641,0
								c1.21-1.21,1.316-3.444,0-4.641c-2.178-1.982-4.356-3.963-6.533-5.945c-1.31-1.193-3.346-1.295-4.641,0
								C28.867,310.91,28.762,313.143,30.078,314.341L30.078,314.341z"/>
						</g>
					</g>
					<g>
						<g>
							<path style="fill:#FFFFFF;" d="M43.777,326.388c2.104,2.068,4.383,3.936,6.784,5.648c1.444,1.03,3.653,0.255,4.49-1.177
								c0.964-1.648,0.27-3.458-1.177-4.49c-1.947-1.388-3.751-2.946-5.456-4.622C45.403,318.783,40.758,323.421,43.777,326.388
								L43.777,326.388z"/>
						</g>
					</g>
					<g>
						<g>
							<path style="fill:#FFFFFF;" d="M62.076,326.809c0.999,0.739,1.998,1.478,2.998,2.217c0.642,0.475,1.794,0.533,2.529,0.331
								c0.761-0.21,1.586-0.798,1.961-1.508c0.402-0.762,0.604-1.684,0.331-2.529c-0.279-0.862-0.784-1.426-1.508-1.961
								c-0.999-0.739-1.999-1.478-2.998-2.217c-0.642-0.475-1.794-0.533-2.529-0.331c-0.761,0.21-1.586,0.798-1.961,1.508
								c-0.403,0.762-0.604,1.685-0.331,2.529C60.847,325.709,61.352,326.273,62.076,326.809L62.076,326.809z"/>
						</g>
					</g>
					<g>
						<g>
							<path style="fill:#FFFFFF;" d="M67.248,320.051c1.653,1.447,3.424,2.763,5.314,3.884c1.478,0.876,3.666,0.383,4.49-1.177
								c0.836-1.582,0.4-3.555-1.177-4.49c-0.777-0.461-1.536-0.947-2.27-1.473c-0.183-0.131-0.365-0.265-0.546-0.4
								c0.216,0.171,0.171,0.134-0.137-0.11c-0.349-0.286-0.694-0.576-1.033-0.874c-1.291-1.13-3.388-1.365-4.641,0
								C66.111,316.648,65.869,318.844,67.248,320.051L67.248,320.051z"/>
						</g>
					</g>
					<g>
						<g>
							<path style="fill:#FFFFFF;" d="M66.192,308.427c0.275,0.192,0.55,0.384,0.826,0.577c0.665,0.465,1.773,0.539,2.529,0.331
								c0.761-0.21,1.586-0.798,1.961-1.508c0.403-0.762,0.604-1.684,0.331-2.529c-0.275-0.85-0.775-1.449-1.508-1.961
								c-0.275-0.192-0.55-0.384-0.826-0.577c-0.665-0.465-1.773-0.539-2.529-0.331c-0.761,0.21-1.586,0.798-1.962,1.508
								c-0.402,0.762-0.604,1.684-0.331,2.529C64.959,307.316,65.459,307.915,66.192,308.427L66.192,308.427z"/>
						</g>
					</g>
					<g>
						<g>
							<path style="fill:#FFFFFF;" d="M43.275,287.702c0.49,0.588,0.98,1.176,1.471,1.764c0.509,0.611,1.556,0.961,2.321,0.961
								c0.805,0,1.767-0.357,2.321-0.961c0.574-0.625,1-1.447,0.961-2.321c-0.041-0.914-0.377-1.619-0.961-2.321
								c-0.49-0.588-0.98-1.176-1.471-1.764c-0.51-0.611-1.556-0.961-2.321-0.961c-0.805,0-1.766,0.358-2.321,0.961
								c-0.574,0.625-1,1.447-0.961,2.321C42.355,286.295,42.69,287,43.275,287.702L43.275,287.702z"/>
						</g>
					</g>
					<g>
						<g>
							<path style="fill:#FFFFFF;" d="M32.244,294.053c0.55,0.384,1.101,0.769,1.652,1.154c0.665,0.465,1.773,0.539,2.529,0.331
								c0.761-0.21,1.586-0.798,1.961-1.508c0.402-0.762,0.604-1.685,0.331-2.529c-0.275-0.85-0.775-1.449-1.508-1.961
								c-0.55-0.385-1.101-0.769-1.652-1.154c-0.665-0.465-1.773-0.539-2.529-0.331c-0.761,0.21-1.586,0.798-1.961,1.508
								c-0.402,0.762-0.604,1.684-0.331,2.529C31.011,292.942,31.51,293.541,32.244,294.053L32.244,294.053z"/>
						</g>
					</g>
					<g>
						<g>
							<path style="fill:#FFFFFF;" d="M23.528,303.721c4.224,0,4.231-6.564,0-6.564C19.304,297.157,19.297,303.721,23.528,303.721
								L23.528,303.721z"/>
						</g>
					</g>
					<g>
						<g>
							<path style="fill:#FFFFFF;" d="M77.515,313.448c0.94,0.942,1.88,1.884,2.819,2.826c1.214,1.217,3.443,1.305,4.641,0
								c1.204-1.311,1.296-3.343,0-4.641c-0.94-0.942-1.88-1.884-2.819-2.826c-1.214-1.217-3.443-1.305-4.642,0
								C76.311,310.118,76.219,312.149,77.515,313.448L77.515,313.448z"/>
						</g>
					</g>
					<g>
						<g>
							<path style="fill:#FFFFFF;" d="M54.857,284.203c0.974,0.821,1.948,1.642,2.922,2.463c0.679,0.572,1.404,0.961,2.321,0.961
								c0.805,0,1.766-0.358,2.321-0.961c1.118-1.218,1.402-3.46,0-4.641c-0.974-0.821-1.948-1.642-2.921-2.463
								c-0.679-0.572-1.404-0.961-2.321-0.961c-0.805,0-1.767,0.358-2.321,0.961C53.738,280.78,53.455,283.021,54.857,284.203
								L54.857,284.203z"/>
						</g>
					</g>
					<g>
						<g>
							<path style="fill:#FFFFFF;" d="M73.56,298.87c0.308,0.243,0.617,0.487,0.925,0.73c0.711,0.562,1.376,0.961,2.321,0.961
								c0.805,0,1.767-0.358,2.321-0.961c0.574-0.625,1-1.447,0.961-2.321c-0.036-0.81-0.294-1.794-0.961-2.321
								c-0.308-0.243-0.616-0.487-0.925-0.73c-0.711-0.561-1.376-0.961-2.321-0.961c-0.805,0-1.767,0.357-2.321,0.961
								c-0.574,0.626-1,1.447-0.961,2.321C72.635,297.359,72.893,298.343,73.56,298.87L73.56,298.87z"/>
						</g>
					</g>
				</g>
				<g>
					<g>
						<g>
							<path style="fill:#FFFFFF;" d="M440.508,287.354c1.852-1.407,3.704-2.813,5.556-4.22c1.483-1.126,2.414-3.131,1.281-4.887
								c-0.945-1.466-3.295-2.49-4.887-1.281c-1.852,1.407-3.704,2.813-5.556,4.22c-1.483,1.126-2.414,3.131-1.281,4.887
								C436.566,287.538,438.916,288.563,440.508,287.354L440.508,287.354z"/>
						</g>
					</g>
					<g>
						<g>
							<path style="fill:#FFFFFF;" d="M444.905,300.312c1.029-0.782,2.057-1.564,3.086-2.345c0.772-0.587,1.373-1.16,1.641-2.135
								c0.236-0.855,0.129-1.993-0.36-2.752c-0.492-0.763-1.224-1.434-2.135-1.641c-0.871-0.198-2.006-0.207-2.752,0.36
								c-1.029,0.782-2.057,1.564-3.086,2.345c-0.772,0.587-1.373,1.16-1.641,2.134c-0.235,0.855-0.129,1.993,0.36,2.752
								c0.492,0.763,1.224,1.434,2.135,1.641C443.024,300.871,444.158,300.88,444.905,300.312L444.905,300.312z"/>
						</g>
					</g>
					<g>
						<g>
							<path style="fill:#FFFFFF;" d="M444.636,314.334c1.182-1.093,2.363-2.186,3.545-3.279c1.375-1.272,1.384-3.781,0-5.051
								c-1.472-1.351-3.584-1.357-5.051,0c-1.182,1.093-2.363,2.186-3.545,3.279c-1.375,1.272-1.384,3.781,0,5.051
								C441.056,315.685,443.169,315.69,444.636,314.334L444.636,314.334z"/>
						</g>
					</g>
					<g>
						<g>
							<path style="fill:#FFFFFF;" d="M431.734,309.145c0.719-0.676,1.438-1.353,2.158-2.029c1.364-1.283,1.392-3.774,0-5.051
								c-1.462-1.342-3.596-1.369-5.051,0c-0.719,0.677-1.438,1.353-2.158,2.029c-1.364,1.283-1.392,3.774,0,5.051
								C428.145,310.487,430.279,310.514,431.734,309.145L431.734,309.145z"/>
						</g>
					</g>
					<g>
						<g>
							<path style="fill:#FFFFFF;" d="M424.784,297.197c4.596,0,4.604-7.143,0-7.143
								C420.188,290.053,420.18,297.197,424.784,297.197L424.784,297.197z"/>
						</g>
					</g>
					<g>
						<g>
							<path style="fill:#FFFFFF;" d="M430.224,274.164c-2.525,1.973-5.05,3.946-7.576,5.918c-1.521,1.189-1.247,3.804,0,5.051
								c1.502,1.502,3.526,1.192,5.051,0c2.525-1.973,5.05-3.946,7.576-5.918c1.521-1.189,1.247-3.804,0-5.051
								C433.773,272.662,431.749,272.973,430.224,274.164L430.224,274.164z"/>
						</g>
					</g>
					<g>
						<g>
							<path style="fill:#FFFFFF;" d="M415.511,286.093c-2.605,1.878-5.075,3.918-7.353,6.182c-3.266,3.245,1.785,8.296,5.051,5.051
								c1.845-1.833,3.798-3.544,5.908-5.065c1.562-1.127,2.321-3.109,1.281-4.887C419.496,285.831,417.084,284.958,415.511,286.093
								L415.511,286.093z"/>
						</g>
					</g>
					<g>
						<g>
							<path style="fill:#FFFFFF;" d="M411.654,305.586c-0.976,0.936-1.952,1.873-2.928,2.809c-1.351,1.296-1.401,3.765,0,5.051
								c1.45,1.331,3.61,1.383,5.051,0c0.976-0.937,1.952-1.873,2.928-2.809c1.351-1.296,1.401-3.765,0-5.051
								C415.255,304.255,413.095,304.203,411.654,305.586L411.654,305.586z"/>
						</g>
					</g>
					<g>
						<g>
							<path style="fill:#FFFFFF;" d="M417.283,312.991c-1.625,1.318-3.115,2.775-4.468,4.37c-1.208,1.423-1.501,3.674,0,5.051
								c1.33,1.221,3.76,1.521,5.051,0c1.353-1.595,2.844-3.052,4.468-4.37c1.457-1.182,1.321-3.839,0-5.051
								C420.786,311.571,418.838,311.73,417.283,312.991L417.283,312.991z"/>
						</g>
					</g>
					<g>
						<g>
							<path style="fill:#FFFFFF;" d="M430.619,313.371c-0.257,0.26-0.513,0.52-0.77,0.78c-1.314,1.331-1.428,3.741,0,5.051
								c1.418,1.302,3.649,1.421,5.051,0c0.257-0.26,0.513-0.52,0.77-0.78c1.314-1.331,1.428-3.741,0-5.051
								C434.252,312.069,432.021,311.95,430.619,313.371L430.619,313.371z"/>
						</g>
					</g>
					<g>
						<g>
							<path style="fill:#FFFFFF;" d="M457.103,292.647c-0.721,0.418-1.442,0.836-2.163,1.254c-1.617,0.938-2.324,3.269-1.281,4.887
								c1.051,1.631,3.157,2.285,4.887,1.281c0.721-0.418,1.442-0.836,2.163-1.254c1.617-0.938,2.324-3.269,1.281-4.887
								C460.939,292.298,458.833,291.644,457.103,292.647L457.103,292.647z"/>
						</g>
					</g>
					<g>
						<g>
							<path style="fill:#FFFFFF;" d="M452.262,279.589c-0.513,0.52-1.027,1.04-1.54,1.56c-1.314,1.331-1.428,3.741,0,5.051
								c1.418,1.302,3.649,1.421,5.051,0c0.514-0.52,1.027-1.04,1.54-1.56c1.314-1.331,1.428-3.741,0-5.051
								C455.895,278.287,453.665,278.168,452.262,279.589L452.262,279.589z"/>
						</g>
					</g>
					<g>
						<g>
							<path style="fill:#FFFFFF;" d="M446.799,272.87c4.596,0,4.604-7.143,0-7.143C442.202,265.726,442.195,272.87,446.799,272.87
								L446.799,272.87z"/>
						</g>
					</g>
					<g>
						<g>
							<path style="fill:#FFFFFF;" d="M423.207,324.657c-1.183,0.835-2.365,1.671-3.548,2.506c-0.775,0.548-1.382,1.192-1.641,2.135
								c-0.236,0.855-0.129,1.993,0.36,2.752c0.974,1.512,3.255,2.434,4.887,1.281c1.183-0.835,2.365-1.671,3.548-2.506
								c0.775-0.547,1.382-1.192,1.641-2.134c0.235-0.855,0.129-1.993-0.36-2.752C427.119,324.427,424.839,323.504,423.207,324.657
								L423.207,324.657z"/>
						</g>
					</g>
					<g>
						<g>
							<path style="fill:#FFFFFF;" d="M458.011,306.271c-1.059,0.894-2.118,1.788-3.178,2.683c-1.433,1.21-1.34,3.821,0,5.051
								c1.525,1.4,3.523,1.29,5.051,0c1.059-0.894,2.118-1.788,3.177-2.683c1.433-1.21,1.34-3.821,0-5.051
								C461.537,304.871,459.54,304.981,458.011,306.271L458.011,306.271z"/>
						</g>
					</g>
					<g>
						<g>
							<path style="fill:#FFFFFF;" d="M438.848,323.646c-0.318,0.286-0.635,0.572-0.953,0.858c-1.392,1.254-1.371,3.793,0,5.051
								c1.487,1.365,3.566,1.338,5.051,0c0.318-0.286,0.635-0.572,0.953-0.858c1.393-1.254,1.371-3.793,0-5.051
								C442.411,322.28,440.333,322.308,438.848,323.646L438.848,323.646z"/>
						</g>
					</g>
				</g>
			</g>
		</g>
	</g>
</g>
<g id="OBJECTS_1_">
	<g>
		<g>
			<path style="fill:#528589;" d="M42.046,374.375c-8.065-7.502-14.643-16.431-21.17-25.303c1.631,2.217,7.49,3.974,9.958,5.462
				c3.243,1.955,6.407,4.042,9.483,6.252c6.505,4.676,12.612,9.906,18.23,15.617c2.173,2.208,12.873,13.709,3.534,11.079
				C54.721,385.409,47.528,379.475,42.046,374.375z"/>
			<path style="fill:#528589;" d="M66.152,374.126c-0.526-8.289,0.577-16.639,1.679-24.93c-0.275,2.072,2.122,6.008,2.724,8.089
				c0.791,2.734,1.465,5.502,2.02,8.296c1.175,5.909,1.819,11.932,1.922,17.981c0.04,2.339-0.106,14.211-4.02,8.034
				C67.391,386.727,66.51,379.761,66.152,374.126z"/>
			<path style="fill:#528589;" d="M77.486,377.283c-0.849-10.982,0.362-22.007,1.571-32.954c-0.302,2.736,2.817,7.997,3.624,10.764
				c1.061,3.635,1.975,7.314,2.739,11.023c1.617,7.847,2.565,15.831,2.829,23.838c0.102,3.096,0.18,18.804-4.907,10.543
				C79.333,393.986,78.064,384.748,77.486,377.283z"/>
			<path style="fill:#528589;" d="M92.148,385.085c-0.711-13.114,1.236-26.351,3.178-39.497c-0.485,3.284,3.351,9.473,4.296,12.757
				c1.241,4.314,2.29,8.685,3.146,13.097c1.81,9.335,2.753,18.857,2.813,28.431c0.023,3.702-0.425,22.5-6.695,12.79
				C93.945,405.012,92.632,394,92.148,385.085z"/>
			<path style="fill:#528589;" d="M109.489,394.624c-1.169-16.573,0.844-33.238,2.855-49.786c-0.502,4.135,4.246,12.04,5.458,16.208
				c1.592,5.476,2.955,11.019,4.087,16.611c2.395,11.828,3.756,23.873,4.06,35.962c0.117,4.674,0.034,28.395-7.716,15.985
				C112.125,419.824,110.284,405.89,109.489,394.624z"/>
			<path style="fill:#528589;" d="M128.318,405.457c1.17-16.573,5.503-32.79,9.817-48.892c-1.078,4.023,2.513,12.517,3.127,16.814
				c0.807,5.645,1.378,11.325,1.714,17.02c0.711,12.048,0.366,24.164-1.031,36.175c-0.54,4.644-3.953,28.118-9.884,14.743
				C127.388,430.777,127.523,416.723,128.318,405.457z"/>
			<path style="fill:#528589;" d="M51.429,390.964c-8.22,1.192-16.163,3.991-24.05,6.776c1.97-0.696,6.316,0.839,8.476,1
				c2.838,0.211,5.686,0.3,8.534,0.269c6.025-0.067,12.051-0.677,17.991-1.822c2.297-0.443,13.885-3.03,7.034-5.588
				C64.015,389.583,57.016,390.154,51.429,390.964z"/>
			<path style="fill:#528589;" d="M56.851,401.406c-10.921,1.43-21.461,4.885-31.925,8.323c2.615-0.859,8.406,1.11,11.28,1.33
				c3.776,0.29,7.564,0.426,11.351,0.411c8.011-0.034,16.02-0.75,23.909-2.14c3.051-0.538,18.439-3.695,9.307-6.973
				C73.577,399.774,64.275,400.434,56.851,401.406z"/>
			<path style="fill:#528589;" d="M67.506,414.147c-12.979,2.004-25.532,6.635-37.996,11.243c3.114-1.151,9.96,1.329,13.368,1.577
				c4.477,0.326,8.97,0.453,13.464,0.381c9.507-0.151,19.02-1.189,28.401-3.101c3.627-0.74,21.93-5.049,11.138-9.185
				C87.375,411.802,76.329,412.784,67.506,414.147z"/>
			<path style="fill:#528589;" d="M80.411,429.152c-16.458,2.268-32.351,7.67-48.131,13.045c3.943-1.343,12.656,1.676,16.985,2.003
				c5.686,0.43,11.391,0.622,17.096,0.579c12.068-0.092,24.135-1.24,36.027-3.432c4.598-0.848,27.794-5.813,14.054-10.842
				C105.614,426.542,91.599,427.61,80.411,429.152z"/>
			<path style="fill:#528589;" d="M94.888,445.347c-15.977,4.557-30.954,12.137-45.823,19.674
				c3.715-1.883,12.766-0.118,17.098-0.402c5.69-0.373,11.366-0.983,17.008-1.827c11.936-1.785,23.721-4.617,35.188-8.457
				c4.434-1.485,26.702-9.658,12.392-12.708C119.475,439.224,105.749,442.249,94.888,445.347z"/>
			<g>
				<polygon style="fill:#36312E;" points="134.326,446.482 22.045,351.262 136.836,443.415 				"/>
			</g>
			<g>
				<path style="fill:#36312E;" d="M71.817,392.199c-0.781-2.171-1.374-4.39-1.876-6.627c-0.512-2.236-0.896-4.497-1.225-6.765
					c-0.299-2.272-0.542-4.553-0.655-6.843c-0.123-2.29-0.152-4.586,0.014-6.887c0.492,2.254,0.864,4.506,1.216,6.759
					c0.362,2.251,0.669,4.504,0.994,6.756c0.295,2.256,0.61,4.508,0.87,6.773C71.425,387.628,71.678,389.897,71.817,392.199z"/>
			</g>
			<g>
				<path style="fill:#36312E;" d="M84.986,403.87c-1.341-7.33-2.097-14.731-2.628-22.143c-0.484-7.416-0.739-14.851-0.403-22.295
					c0.917,7.394,1.456,14.788,1.983,22.188C84.417,389.021,84.886,396.42,84.986,403.87z"/>
			</g>
			<g>
				<path style="fill:#36312E;" d="M102.138,417.141c-1.628-8.635-2.78-17.325-3.814-26.028c-0.987-8.709-1.854-17.432-2.241-26.211
					c1.632,8.634,2.783,17.324,3.814,26.028C100.881,399.639,101.748,408.362,102.138,417.141z"/>
			</g>
			<g>
				<path style="fill:#36312E;" d="M120.767,430.71c-0.678-2.881-1.218-5.79-1.773-8.698c-0.491-2.918-0.936-5.844-1.355-8.775
					c-0.824-5.864-1.378-11.76-1.833-17.66c-0.848-11.806-1.183-23.631-1.033-35.462c1.103,11.784,1.723,23.579,2.613,35.345
					c0.414,5.886,0.925,11.761,1.459,17.637l0.429,4.405l0.485,4.4l0.485,4.404C120.435,427.77,120.607,429.238,120.767,430.71z"/>
			</g>
			<g>
				<path style="fill:#36312E;" d="M134.059,443.71c-0.882-10.352-0.834-20.768-0.22-31.139c0.661-10.368,1.892-20.712,4.042-30.876
					c-0.908,10.345-1.846,20.644-2.461,30.974C134.759,422.995,134.425,433.331,134.059,443.71z"/>
			</g>
			<g>
				<path style="fill:#36312E;" d="M38.603,396.738c2.584-1.073,5.256-1.908,7.963-2.598c2.707-0.699,5.458-1.216,8.224-1.619
					c2.771-0.375,5.558-0.635,8.353-0.708c2.793-0.083,5.591-0.014,8.371,0.309l-8.283,0.925c-2.748,0.322-5.489,0.646-8.22,1.043
					c-2.736,0.368-5.46,0.811-8.191,1.256L38.603,396.738z"/>
			</g>
			<g>
				<path style="fill:#36312E;" d="M37.835,408.544c7.406-2.4,15.082-3.904,22.809-4.839c7.733-0.889,15.549-1.21,23.31-0.592
					c-7.753,0.637-15.45,1.24-23.124,2.165C53.15,406.158,45.524,407.359,37.835,408.544z"/>
			</g>
			<g>
				<path style="fill:#36312E;" d="M46.65,422.766c8.673-3.415,17.861-5.518,27.139-6.593c9.283-1.03,18.709-1.034,27.926,0.36
					c-9.31-0.141-18.56,0.153-27.747,1.214C64.773,418.763,55.692,420.544,46.65,422.766z"/>
			</g>
			<g>
				<path style="fill:#36312E;" d="M47.014,440.745c1.51-0.414,3.026-0.816,4.548-1.198l4.593-1.03l4.632-0.843l4.652-0.732
					c6.214-0.911,12.469-1.454,18.718-1.922c6.252-0.431,12.501-0.786,18.748-1.118c3.123-0.166,6.244-0.367,9.364-0.587
					l4.683-0.322c1.558-0.143,3.118-0.267,4.683-0.377c-3.08,0.588-6.184,1.027-9.289,1.472c-3.112,0.378-6.229,0.716-9.348,1.03
					c-6.239,0.619-12.49,1.016-18.727,1.482c-6.24,0.428-12.467,0.927-18.683,1.547l-4.657,0.514l-4.645,0.618l-4.641,0.678
					C50.106,440.236,48.563,440.497,47.014,440.745z"/>
			</g>
			<g>
				<path style="fill:#36312E;" d="M69.846,459.147c2.619-0.93,5.269-1.757,7.906-2.63l7.964-2.431
					c5.314-1.606,10.67-3.065,16.032-4.497c10.74-2.805,21.541-5.388,32.472-7.391c-10.635,3.222-21.349,6.078-32.069,8.923
					c-5.367,1.393-10.728,2.811-16.115,4.136l-8.077,2.005C75.253,457.883,72.563,458.561,69.846,459.147z"/>
			</g>
		</g>
		<g>
			<path style="fill:#528589;" d="M456.143,351.448c8.112-7.451,17.531-13.307,26.888-19.118c-2.338,1.452-4.55,7.154-6.227,9.499
				c-2.204,3.08-4.533,6.07-6.978,8.962c-5.172,6.118-10.866,11.795-17,16.948c-2.372,1.992-14.678,11.756-11.322,2.652
				C444.148,363.217,450.629,356.513,456.143,351.448z"/>
			<path style="fill:#528589;" d="M454.498,375.499c8.305,0.126,16.542,1.882,24.721,3.632c-2.044-0.437-6.156,1.643-8.277,2.08
				c-2.787,0.574-5.6,1.028-8.429,1.362c-5.984,0.707-12.038,0.876-18.076,0.504c-2.335-0.144-14.159-1.222-7.694-4.639
				C441.839,375.745,448.853,375.413,454.498,375.499z"/>
			<path style="fill:#528589;" d="M450.461,386.551c11.014,0.016,21.91,2.089,32.729,4.154c-2.703-0.516-8.194,2.18-11.016,2.768
				c-3.707,0.772-7.446,1.394-11.204,1.865c-7.949,0.996-15.983,1.314-23.986,0.948c-3.094-0.141-18.76-1.297-10.125-5.72
				C433.665,387.08,442.974,386.54,450.461,386.551z"/>
			<path style="fill:#528589;" d="M441.532,400.555c13.129,0.321,26.173,3.302,39.125,6.27c-3.236-0.742-9.707,2.597-13.055,3.281
				c-4.398,0.898-8.837,1.601-13.304,2.107c-9.448,1.071-19.015,1.263-28.565,0.572c-3.693-0.267-22.397-2.191-12.225-7.679
				C421.525,400.781,432.607,400.336,441.532,400.555z"/>
			<path style="fill:#528589;" d="M430.66,417.093c16.613,0.136,33.069,3.452,49.408,6.756c-4.083-0.825-12.336,3.287-16.587,4.168
				c-5.584,1.157-11.217,2.08-16.88,2.77c-11.98,1.459-24.094,1.869-36.169,1.223c-4.669-0.25-28.31-2.196-15.33-8.947
				C405.331,417.741,419.367,417,430.66,417.093z"/>
			<path style="fill:#528589;" d="M418.382,435.013c16.43,2.467,32.256,8.062,47.97,13.627c-3.926-1.391-12.676,1.522-17.008,1.797
				c-5.691,0.361-11.398,0.484-17.102,0.372c-12.066-0.238-24.118-1.533-35.983-3.868c-4.587-0.903-27.721-6.15-13.922-11.011
				C393.213,432.098,407.214,433.335,418.382,435.013z"/>
			<path style="fill:#528589;" d="M438.868,359.499c-0.542-8.288-2.709-16.427-4.866-24.508c0.539,2.019-1.332,6.23-1.662,8.371
				c-0.433,2.813-0.746,5.645-0.938,8.486c-0.406,6.012-0.271,12.067,0.403,18.079c0.261,2.325,1.93,14.08,5.019,7.452
				C439.258,372.155,439.237,365.133,438.868,359.499z"/>
			<path style="fill:#528589;" d="M428.033,364.085c-0.568-11-3.185-21.778-5.79-32.48c0.651,2.674-1.766,8.293-2.212,11.141
				c-0.586,3.742-1.019,7.507-1.301,11.283c-0.596,7.989-0.511,16.029,0.256,24.004c0.296,3.083,2.236,18.672,6.22,9.826
				C428.347,380.887,428.42,371.562,428.033,364.085z"/>
			<path style="fill:#528589;" d="M414.495,373.706c-0.979-13.096-4.61-25.975-8.224-38.762c0.903,3.195-2.107,9.825-2.622,13.203
				c-0.677,4.438-1.156,8.907-1.438,13.393c-0.596,9.49-0.309,19.055,0.861,28.557c0.452,3.674,3.311,22.259,8.282,11.825
				C415.272,393.698,415.16,382.608,414.495,373.706z"/>
			<path style="fill:#528589;" d="M398.522,385.393c-0.969-16.586-5.106-32.854-9.224-49.007c1.029,4.036-2.665,12.486-3.331,16.775
				c-0.875,5.635-1.515,11.307-1.92,16.998c-0.856,12.038-0.659,24.158,0.592,36.185c0.484,4.651,3.612,28.164,9.705,14.862
				C399.145,410.723,399.181,396.667,398.522,385.393z"/>
			<path style="fill:#528589;" d="M381.241,398.553c-3.288-16.285-9.669-31.811-16.015-47.226
				c1.586,3.852-0.885,12.736-0.942,17.077c-0.075,5.702,0.088,11.408,0.486,17.099c0.842,12.039,2.74,24.011,5.668,35.743
				c1.132,4.537,7.531,27.378,11.695,13.352C385.414,423.545,383.476,409.624,381.241,398.553z"/>
			<g>
				<polygon style="fill:#36312E;" points="377.012,437.781 480.756,333.325 379.872,440.523 				"/>
			</g>
			<g>
				<path style="fill:#36312E;" d="M436.036,379.727c2.225-0.608,4.484-1.025,6.753-1.35c2.269-0.335,4.553-0.54,6.84-0.69
					c2.289-0.12,4.581-0.183,6.874-0.116c2.292,0.057,4.584,0.209,6.865,0.555c-2.285,0.313-4.56,0.507-6.833,0.681
					c-2.272,0.184-4.543,0.314-6.813,0.46c-2.272,0.117-4.542,0.254-6.82,0.335C440.624,379.696,438.342,379.77,436.036,379.727z"/>
			</g>
			<g>
				<path style="fill:#36312E;" d="M423.368,391.939c7.413-0.761,14.85-0.934,22.281-0.881c7.431,0.1,14.863,0.429,22.258,1.349
					c-7.443,0.333-14.857,0.29-22.275,0.235C438.215,392.538,430.802,392.425,423.368,391.939z"/>
			</g>
			<g>
				<path style="fill:#36312E;" d="M408.791,407.996c8.736-0.945,17.49-1.411,26.248-1.758c8.76-0.3,17.524-0.48,26.306-0.175
					c-8.736,0.949-17.489,1.414-26.248,1.758C426.337,408.117,417.572,408.297,408.791,407.996z"/>
			</g>
			<g>
				<path style="fill:#36312E;" d="M393.8,425.502c2.925-0.449,5.867-0.759,8.811-1.085c2.948-0.261,5.9-0.474,8.854-0.662
					c5.91-0.361,11.832-0.451,17.749-0.441c11.836,0.082,23.651,0.676,35.434,1.755c-11.834,0.174-23.642-0.134-35.441-0.171
					c-5.9-0.049-11.797-0.001-17.697,0.07l-4.425,0.082l-4.424,0.138l-4.428,0.138C396.757,425.402,395.28,425.458,393.8,425.502z"
					/>
			</g>
			<g>
				<path style="fill:#36312E;" d="M379.797,437.732c10.389-0.066,20.77,0.8,31.06,2.226c10.284,1.473,20.499,3.513,30.464,6.454
					c-10.242-1.718-20.435-3.461-30.685-4.885C400.392,440.056,390.114,438.911,379.797,437.732z"/>
			</g>
			<g>
				<path style="fill:#36312E;" d="M434.12,346.259c0.867,2.66,1.49,5.389,1.964,8.143c0.484,2.753,0.783,5.537,0.969,8.326
					c0.156,2.792,0.197,5.591,0.05,8.382c-0.137,2.791-0.425,5.575-0.965,8.321l-0.271-8.33c-0.105-2.764-0.213-5.523-0.394-8.277
					c-0.152-2.756-0.379-5.507-0.609-8.264L434.12,346.259z"/>
			</g>
			<g>
				<path style="fill:#36312E;" d="M422.41,344.567c1.811,7.571,2.707,15.342,3.033,23.119c0.279,7.779-0.015,15.596-1.24,23.284
					c-0.026-7.78-0.023-15.5-0.343-23.223C423.587,360.022,422.988,352.325,422.41,344.567z"/>
			</g>
			<g>
				<path style="fill:#36312E;" d="M407.541,352.237c2.723,8.914,4.098,18.239,4.441,27.573c0.298,9.335-0.439,18.733-2.552,27.811
					c0.872-9.27,1.305-18.514,0.969-27.757C410.107,370.62,409.046,361.426,407.541,352.237z"/>
			</g>
			<g>
				<path style="fill:#36312E;" d="M389.588,351.188c0.294,1.538,0.575,3.081,0.837,4.628l0.666,4.66l0.477,4.684l0.364,4.695
					c0.421,6.266,0.47,12.545,0.446,18.811c-0.061,6.267-0.198,12.524-0.358,18.778c-0.08,3.127-0.125,6.253-0.15,9.381
					l-0.047,4.694c0.02,1.564,0.021,3.13,0.008,4.698c-0.344-3.117-0.538-6.246-0.738-9.376c-0.132-3.132-0.224-6.266-0.292-9.4
					c-0.127-6.268-0.032-12.531-0.007-18.785c0.063-6.255,0.055-12.502-0.075-18.746l-0.147-4.683l-0.251-4.679l-0.312-4.68
					C389.853,354.311,389.714,352.752,389.588,351.188z"/>
			</g>
			<g>
				<path style="fill:#36312E;" d="M369.45,372.504c0.721,2.685,1.337,5.391,2,8.088l1.798,8.13
					c1.183,5.424,2.218,10.878,3.225,16.336c1.953,10.927,3.68,21.897,4.818,32.953c-2.377-10.855-4.382-21.761-6.377-32.671
					c-0.967-5.46-1.96-10.915-2.858-16.39l-1.364-8.209C370.286,377.995,369.821,375.259,369.45,372.504z"/>
			</g>
		</g>
		<g>
			<path style="fill:#712200;" d="M406.237,333.332c-7.792-5.396-17.95-6.352-27.625-5.932c-3.208,0.139-6.497,0.431-9.46,1.784
				c-2.236,1.02-4.184,2.599-6.016,4.255c-12.895,11.652-21.271,28.197-22.881,45.192c-0.243,2.569-0.329,5.214,0.489,7.617
				c0.794,2.331,2.379,4.266,3.865,6.209c4.991,6.525,9.162,13.69,12.393,21.286c1.85,4.349,3.462,8.953,6.672,12.387
				c3.184,3.406,7.635,5.327,12.032,6.977c5.075,1.905,10.251,3.566,15.504,4.976c4.091,1.098,11.341,2.89,15.564,1.992
				c2.269-0.482,4.411-1.48,6.53-2.469c6.799-3.174,10.714-7.228,16.717-11.782c13.432-10.19,16.596-23.058,20.441-39.272
				c0.66-2.785,1.214-5.713,0.475-8.419c-0.577-2.11-1.899-3.911-3.356-5.514c-3.723-4.095-3.635-10.345-8.168-13.47
				c-4.166-2.872-7.833-6.682-12.162-9.256c-3.196-1.901-6.356-3.061-9.198-5.584C414.028,340.736,410.694,336.419,406.237,333.332z
				"/>
			<g>
				<path style="fill:#BF2200;" d="M390.041,371.49c5.229-2.963,11.68-3.685,17.435-1.953c-2.202-6.143-9.306-10.078-15.682-8.684
					c-3.258,0.712-6.161,2.611-8.563,4.924c-2.471,2.379-4.519,5.292-5.42,8.602c-0.82,3.013-1.124,8.94,2.789,7.592
					C382.923,381.171,386.804,373.324,390.041,371.49z"/>
				<path style="fill:#9C2200;" d="M410.203,381.908c-2.496,5.651-8.311,9.682-14.478,10.036c5.142,3.193,12.465,3.403,16.855-0.763
					c1.962-1.862,3.172-4.374,4.139-6.9c1.176-3.072,2.064-6.437,1.265-9.628c-0.925-3.693-5.009-8.208-8.878-8.702
					C411.281,371.233,412.664,376.334,410.203,381.908z"/>
				<path style="fill:#9C2200;" d="M390.151,391.716c2.628,4.951,8.332,8.089,13.921,7.658c-4.193,1.694-8.8,2.35-13.299,1.892
					c-2.204-0.224-4.519-0.785-6.055-2.383c-0.823-0.856-1.358-1.949-1.746-3.071c-1.309-3.78-1.017-8.086,0.79-11.655
					c1.192-2.354,3.254-4.911,5.712-5.936c0.402,1.893-0.921,4.411-0.951,6.55C388.489,387.173,389.022,389.589,390.151,391.716z"/>
				<path style="fill:#9C2200;" d="M394.949,359.285c-6.603,0.439-12.87,4.391-16.113,10.16c-2.571,4.574-3.242,9.938-3.863,15.148
					c-2.581-4.052-4.256-8.677-4.869-13.441c-0.531-4.128-0.243-8.451,1.504-12.228c3.644-7.873,12.878-11.767,21.545-12.154
					c2.79-0.125,5.626,0.044,8.288,0.89c6.59,2.094,11.578,8.94,11.644,15.861c0.056,5.905-4.035,0.063-6.719-1.496
					C402.936,360.03,398.915,359.021,394.949,359.285z"/>
				<path style="fill:#BF2200;" d="M427.944,381.952c0.095,9.18-4.505,18.286-11.949,23.657c-1.947,1.405-4.061,2.56-6.169,3.712
					c-1.222,0.668-2.529,1.355-3.919,1.269c-2.59-0.161-4.198-2.802-5.353-5.126c4.229-4.264,10.003-6.781,14.069-11.202
					c6.649-7.23,7.203-19.298,1.243-27.106c-0.425-0.557-0.888-1.112-1.087-1.783c-0.191-0.645-0.119-1.333-0.134-2.006
					c-0.037-1.665-2.726-5.887-0.041-5.733c1.751,0.1,5.315,4.64,6.354,5.865C425.295,368.611,427.875,375.235,427.944,381.952z"/>
				<path style="fill:#BF2200;" d="M381.646,399.745c-3.697-3.9-5.147-9.795-3.681-14.964c-1.709,1.678-4.747,1.095-6.455-0.583
					c-1.709-1.679-2.427-4.094-3.081-6.399c-1.029-3.624-2.057-7.247-3.086-10.87c-2.426,6.432-4.763,13.099-4.564,19.97
					c0.259,8.968,5.16,17.676,12.691,22.551c7.531,4.875,17.483,5.78,25.771,2.344c0.624-0.259-2.857-2.349-2.914-2.534
					c-0.594-1.929,3.058-3.417-0.537-4.609c-2.285-0.758-5.052-0.042-7.48-0.802C385.794,403.062,383.463,401.662,381.646,399.745z"
					/>
				<path style="fill:#BF2200;" d="M401.149,342.634c-10.048-2.673-21.016,1.575-28.522,8.77
					c-7.506,7.195-12.041,16.939-15.381,26.785c-1.771-5.652-2.662-11.579-2.63-17.502c0.015-2.752,0.253-5.595,1.535-8.03
					c0.917-1.741,2.317-3.177,3.774-4.5c3.994-3.626,8.532-6.592,13.049-9.542c3.808-2.486,7.805-5.043,12.327-5.525
					c3.895-0.416,7.79,0.764,11.384,2.319c4.244,1.836,8.253,4.217,11.896,7.066c0.452,0.353,0.948,0.852,0.802,1.406
					c-0.181,0.686-1.12,0.756-1.822,0.657c-3.38-0.477-6.688-1.462-9.778-2.912"/>
				<path style="fill:#9C2200;" d="M436.7,364.02c1.565,1.525,3.124,3.109,4.154,5.036c1.317,2.462,1.685,5.327,1.666,8.119
					c-0.07,10.781-5.528,20.864-12.337,29.224c-2.267,2.783-4.749,5.476-7.85,7.285c-3.404,1.986-7.349,2.793-11.213,3.569
					c-3.5,0.703-7.249,1.385-10.542,0.007c9.334-4.251,18.931-8.688,25.899-16.215c1.81-1.955,3.438-4.134,4.377-6.627
					c1.275-3.387,1.199-7.139,0.669-10.719c-1.346-9.092-5.496-17.523-10.845-24.914c-1.312-1.812-7.647-7.512-7.168-9.601
					c1.046-4.556,8.072,1.766,9.214,2.655C427.602,355.639,432.27,359.707,436.7,364.02z"/>
				<path style="fill:#9C2200;" d="M364.824,406.22c5.82,6.822,15.294,8.981,24.085,10.752c7.564,1.524,15.159,3.053,22.862,3.49
					c-9.991,3.693-21.083,5.709-31.281,2.633c-7.016-2.116-13.23-6.584-17.841-12.28c-1.947-2.404-3.617-5.018-5.25-7.646
					c-1.884-3.032-3.728-6.101-5.186-9.359c-4.93-11.014-5.111-24.059-0.489-35.204c3.071,7.771,1.13,16.312,5.127,23.797
					c1.914,3.585,1.603,7.929,2.478,11.871C360.288,398.597,361.921,402.818,364.824,406.22z"/>
				<path style="fill:#BF2200;" d="M404.786,372.58c0.714,0.034,1.467,0.089,2.058,0.49c1.183,0.803,1.169,2.54,0.865,3.937
					c-0.795,3.653-2.695,7.034-5.278,9.737c-0.753,0.788-1.592,1.539-2.616,1.915c-1.023,0.376-2.27,0.31-3.088-0.411
					c-0.778-0.686-1.023-1.829-0.864-2.855c0.159-1.025,0.662-1.961,1.182-2.858c0.941-1.622,1.964-3.196,3.065-4.714
					c0.013-0.545-0.848-0.465-1.314-0.183c-0.969,0.585-1.937,1.169-2.906,1.754c-0.739,0.446-1.847,0.824-2.33,0.109
					c-1.227-1.815,1.24-5.412,2.791-6.103C398.858,372.283,402.117,372.45,404.786,372.58z"/>
				<path style="fill:#BF2200;" d="M421.835,415.955c-9.882,6.761-21.484,10.765-33.311,12.633
					c6.381,2.61,13.144,4.285,20.005,4.954c2.013,0.196,4.063,0.305,6.041-0.115c3.03-0.642,5.668-2.471,8.059-4.44
					c10.051-8.277,17.32-19.874,20.391-32.527c0.222-0.914,1.204-3.96,0.578-4.752c-1.114-1.408-1.751,1.275-2.216,2.215
					c-1.485,3.006-3.281,5.861-5.302,8.535C432.118,407.699,427.253,412.248,421.835,415.955z"/>
			</g>
		</g>
		<g>
			<polygon style="fill:#F1D7AB;" points="84.444,88.927 151.444,88.427 132.819,52.178 102.194,41.303 82.65,39.482 			"/>
			<ellipse style="fill:#E68F64;" cx="83.585" cy="64.177" rx="14.681" ry="24.75"/>
			<g>
				<path style="fill:#50191B;" d="M81.962,39.576c-1.401,0.821-2.449,2.093-3.277,3.452c-0.84,1.361-1.489,2.832-2.025,4.34
					c-1.092,3.008-1.721,6.169-1.992,9.343c-0.56,6.344,0.269,12.828,2.485,18.742c0.564,1.461,1.249,2.866,2.162,4.045
					c0.89,1.166,2.086,2.109,3.388,2.361c0.644,0.126,1.275,0.063,1.858-0.188c0.591-0.26,1.174-0.699,1.708-1.224
					c1.084-1.032,1.971-2.285,2.687-3.64c1.431-2.724,2.216-5.809,2.661-8.919c0.431-3.115,0.535-6.313,0.327-9.45
					c-0.193-3.129-0.75-6.257-1.984-9.062c-0.608-1.365-1.452-2.675-2.55-3.248c-1.064-0.57-2.468-0.287-3.57,0.549
					c-1.101,0.813-1.93,2.124-2.537,3.502c-0.614,1.392-1.026,2.909-1.339,4.443c-0.603,3.072-0.755,6.246-0.458,9.379
					c0.153,1.566,0.424,3.123,0.82,4.646c0.193,0.763,0.427,1.515,0.69,2.257c0.253,0.744,0.541,1.463,0.942,1.999
					c0.414,0.542,0.861,0.739,1.423,0.544c0.563-0.188,1.043-0.722,1.39-1.364c0.688-1.305,1.005-2.902,1.225-4.451
					c0.219-1.568,0.291-3.171,0.354-4.78c0.061-1.607,0.102-3.21-0.026-4.8c-0.128-1.587-0.416-3.172-1.059-4.63
					c-0.623-1.439-1.584-2.862-3.089-3.515c1.547,0.557,2.633,1.95,3.362,3.388c0.736,1.467,1.106,3.09,1.312,4.704
					c0.207,1.62,0.241,3.25,0.254,4.866c0.011,1.614,0.016,3.242-0.135,4.88c-0.179,1.637-0.437,3.276-1.204,4.865
					c-0.392,0.769-0.999,1.583-1.974,1.96c-0.476,0.186-1.068,0.232-1.601,0.037c-0.534-0.19-0.925-0.556-1.224-0.921
					c-0.586-0.748-0.906-1.551-1.199-2.318c-0.298-0.771-0.566-1.553-0.791-2.347c-0.461-1.586-0.791-3.209-0.998-4.847
					c-0.419-3.276-0.341-6.624,0.29-9.884c0.316-1.626,0.735-3.247,1.408-4.816c0.68-1.555,1.581-3.107,3.074-4.252
					c0.739-0.552,1.603-0.988,2.572-1.162c0.961-0.188,2.033-0.048,2.935,0.408c0.9,0.456,1.58,1.144,2.123,1.858
					c0.546,0.72,0.963,1.487,1.321,2.264c1.396,3.104,2.008,6.429,2.237,9.722c0.186,3.3,0.048,6.584-0.433,9.855
					c-0.5,3.256-1.346,6.516-2.947,9.502c-0.803,1.485-1.811,2.893-3.078,4.075c-0.622,0.592-1.34,1.155-2.231,1.54
					c-0.901,0.387-1.948,0.473-2.883,0.273c-1.891-0.403-3.359-1.654-4.381-3.048c-1.026-1.407-1.714-2.961-2.268-4.52
					c-2.131-6.236-2.791-12.895-2.018-19.377c0.427-3.234,1.219-6.426,2.47-9.43c0.615-1.503,1.34-2.971,2.265-4.313
					C79.36,41.534,80.512,40.307,81.962,39.576z"/>
			</g>
			<path style="fill:#F2EDE2;" d="M383.998,385.533l-11.944-3.822l10.856-3.053c-0.278-2.024-0.524-4.085-0.744-6.175l-8.589-1.431
				l8.11-3.663c-5.179-63.051,13.198-152.344,22.082-214.133l-14.202-4.545l15.436-4.342c0.176-1.319,0.348-2.626,0.513-3.914
				l-14.426-2.404l15.55-7.022c1.311-11.939,1.951-22.196,1.556-30.175c-3.507-70.723-44.424-63.495-63.965-63.85
				C324.69,36.648,82.65,39.482,82.65,39.482s41.294-0.554,45.006,61.371c0.993,16.567-0.791,38.853-3.804,64.02l14.441,5.158
				l-15.535,3.679c-0.24,1.89-0.485,3.79-0.735,5.706l10.179,2.036l-10.887,3.314c-4.61,34.438-10.624,72.514-14.638,107.987
				l10.295,3.677l-10.987,2.602c-0.276,2.576-0.544,5.14-0.794,7.681l5.69,1.138l-5.973,1.818
				c-3.776,39.69-4.169,74.586,4.044,95.117c23.38,58.449,71.638,56.816,91.007,57.561l225.679-20.919
				C401.645,436.051,389.268,414.976,383.998,385.533z"/>
			<path style="fill:#F1D7AB;" d="M170.652,459.738c0,0,74.738,11.725,154.95,3.703c80.212-8.021,93.41-12.596,98.99-16.432
				c2.738-1.882,6.071-11.307,4.992-21.403c-1.121-10.481-6.809-21.638-12.316-23.237c-10.811-3.139-65.565,4.534-115.435,7.324
				c-49.871,2.79-121.016-0.349-121.016-0.349L170.652,459.738z"/>
			
				<ellipse transform="matrix(0.198 -0.9802 0.9802 0.198 -285.2162 521.199)" style="fill:#E68F64;" cx="175.898" cy="434.896" rx="25.389" ry="15.06"/>
			<g>
				<path style="fill:#50191B;" d="M179.263,409.829c-1.575,0.54-2.889,1.605-3.999,2.803c-1.122,1.197-2.075,2.544-2.92,3.952
					c-1.711,2.802-2.988,5.853-3.907,8.989c-1.855,6.266-2.34,12.956-1.316,19.356c0.27,1.585,0.673,3.138,1.353,4.512
					c0.659,1.357,1.672,2.552,2.938,3.073c0.625,0.259,1.278,0.325,1.919,0.19c0.651-0.142,1.328-0.467,1.973-0.887
					c1.302-0.819,2.451-1.9,3.447-3.119c1.995-2.452,3.413-5.396,4.492-8.434c1.067-3.046,1.821-6.241,2.251-9.44
					c0.441-3.188,0.517-6.448-0.156-9.524c-0.335-1.498-0.917-2.991-1.914-3.798c-0.963-0.797-2.443-0.795-3.726-0.176
					c-1.278,0.597-2.379,1.75-3.271,3.014c-0.901,1.277-1.625,2.72-2.25,4.2c-1.231,2.969-2.028,6.132-2.365,9.345
					c-0.164,1.607-0.207,3.228-0.118,4.841c0.04,0.807,0.122,1.612,0.236,2.411c0.104,0.8,0.248,1.582,0.543,2.206
					c0.306,0.633,0.726,0.928,1.337,0.845c0.61-0.076,1.203-0.518,1.683-1.095c0.959-1.175,1.601-2.718,2.137-4.232
					c0.538-1.533,0.935-3.13,1.324-4.736c0.387-1.604,0.753-3.208,0.946-4.833c0.193-1.622,0.224-3.275-0.127-4.873
					c-0.335-1.574-1.015-3.199-2.395-4.161c1.441,0.876,2.249,2.497,2.689,4.09c0.441,1.624,0.482,3.331,0.361,4.994
					c-0.122,1.67-0.42,3.316-0.736,4.943c-0.318,1.625-0.645,3.262-1.13,4.878c-0.512,1.608-1.106,3.204-2.198,4.641
					c-0.55,0.692-1.323,1.385-2.374,1.564c-0.514,0.09-1.114,0.016-1.606-0.286c-0.495-0.298-0.812-0.742-1.038-1.169
					c-0.435-0.868-0.594-1.739-0.732-2.569c-0.143-0.835-0.253-1.676-0.318-2.52c-0.14-1.687-0.142-3.385-0.017-5.073
					c0.245-3.377,1.004-6.725,2.3-9.873c0.648-1.57,1.398-3.113,2.392-4.552c0.998-1.423,2.218-2.798,3.946-3.643
					c0.853-0.404,1.806-0.666,2.812-0.643c1,0.006,2.043,0.363,2.854,1.001c0.808,0.638,1.35,1.465,1.751,2.291
					c0.401,0.832,0.664,1.687,0.867,2.54c0.773,3.4,0.712,6.865,0.273,10.22c-0.483,3.354-1.287,6.627-2.435,9.816
					c-1.163,3.17-2.675,6.274-4.888,8.949c-1.108,1.328-2.406,2.537-3.916,3.468c-0.744,0.469-1.579,0.887-2.549,1.092
					c-0.98,0.205-2.045,0.079-2.941-0.31c-1.813-0.786-3.031-2.337-3.775-3.943c-0.744-1.62-1.121-3.321-1.362-4.999
					c-0.878-6.699-0.191-13.527,1.9-19.886c1.084-3.164,2.527-6.213,4.392-8.98c0.923-1.386,1.949-2.715,3.15-3.878
					C176.25,411.271,177.656,410.271,179.263,409.829z"/>
			</g>
			<g>
				<g>
					<path style="fill:#E68F64;" d="M126.794,189.495c0.176,2.969,0.156,5.923,0.067,8.871c-0.077,2.949-0.271,5.888-0.487,8.826
						c-0.254,2.935-0.532,5.867-0.926,8.791c-0.382,2.925-0.835,5.843-1.486,8.746c-0.179-2.969-0.16-5.923-0.07-8.871
						c0.078-2.949,0.271-5.888,0.49-8.826c0.256-2.935,0.534-5.867,0.929-8.79C125.693,195.316,126.145,192.397,126.794,189.495z"/>
				</g>
				<g>
					<path style="fill:#E68F64;" d="M123.257,232.06c0.255,0.917,0.315,1.791,0.339,2.656c0.01,0.863-0.046,1.712-0.16,2.553
						c-0.113,0.841-0.286,1.674-0.527,2.502c-0.253,0.828-0.546,1.653-1.04,2.468c-0.341-0.891-0.462-1.77-0.523-2.644
						c-0.049-0.874-0.01-1.74,0.109-2.596c0.118-0.856,0.312-1.702,0.593-2.53C122.342,233.642,122.693,232.827,123.257,232.06z"/>
				</g>
				<g>
					<path style="fill:#E68F64;" d="M133.666,213.605c0.101,1.489,0.039,2.929-0.063,4.358c-0.102,1.428-0.244,2.844-0.436,4.252
						c-0.185,1.409-0.427,2.811-0.707,4.215c-0.281,1.405-0.605,2.809-1.101,4.217c-0.336-1.456-0.444-2.914-0.453-4.366
						c-0.007-1.452,0.08-2.901,0.279-4.335c0.193-1.435,0.492-2.855,0.886-4.253C132.466,216.296,132.957,214.919,133.666,213.605z"
						/>
				</g>
				<g>
					<path style="fill:#E68F64;" d="M128.252,246.261c0.457,0.811,0.681,1.656,0.831,2.504c0.137,0.849,0.171,1.706,0.112,2.556
						c-0.058,0.85-0.212,1.694-0.468,2.515c-0.267,0.819-0.609,1.623-1.177,2.362c-0.254-0.896-0.331-1.736-0.382-2.566
						c-0.039-0.829-0.026-1.642,0.033-2.452c0.058-0.81,0.16-1.617,0.315-2.432C127.684,247.932,127.876,247.111,128.252,246.261z"
						/>
				</g>
				<g>
					<path style="fill:#E68F64;" d="M124.179,256.194c0.359,0.914,0.509,1.815,0.611,2.712c0.089,0.897,0.101,1.788,0.045,2.676
						c-0.056,0.888-0.181,1.771-0.384,2.648c-0.215,0.877-0.48,1.751-0.956,2.612c-0.361-0.914-0.513-1.815-0.614-2.713
						c-0.089-0.897-0.101-1.788-0.042-2.676c0.058-0.887,0.183-1.77,0.386-2.648C123.443,257.929,123.707,257.055,124.179,256.194z"
						/>
				</g>
				<g>
					<path style="fill:#E68F64;" d="M116.538,395.85c1.423,4.066,2.961,8.046,4.721,11.919c1.772,3.865,3.722,7.638,5.923,11.263
						c2.168,3.644,4.583,7.138,7.163,10.518c2.592,3.373,5.382,6.601,8.301,9.769c-3.477-2.548-6.64-5.531-9.505-8.776
						c-2.877-3.239-5.424-6.772-7.672-10.481c-2.216-3.729-4.138-7.636-5.646-11.698
						C118.304,404.309,117.156,400.116,116.538,395.85z"/>
				</g>
				<g>
					<path style="fill:#E68F64;" d="M136.995,428.968c0.782,0.132,1.425,0.422,2.038,0.747c0.604,0.335,1.155,0.729,1.663,1.174
						c0.508,0.444,0.969,0.941,1.38,1.496c0.402,0.564,0.771,1.167,1.001,1.927c-0.783-0.131-1.428-0.419-2.039-0.745
						c-0.604-0.335-1.156-0.729-1.661-1.176c-0.506-0.446-0.968-0.943-1.378-1.498C137.597,430.328,137.227,429.726,136.995,428.968
						z"/>
				</g>
				<g>
					<path style="fill:#E68F64;" d="M146.856,439.675c0.773-0.047,1.445,0.089,2.094,0.267c0.642,0.189,1.247,0.447,1.818,0.763
						c0.572,0.316,1.11,0.693,1.61,1.139c0.494,0.456,0.964,0.956,1.332,1.639c-0.775,0.049-1.447-0.086-2.095-0.265
						c-0.642-0.189-1.247-0.447-1.817-0.765c-0.571-0.318-1.109-0.695-1.609-1.141C147.695,440.855,147.225,440.357,146.856,439.675
						z"/>
				</g>
				<g>
					<path style="fill:#E68F64;" d="M144.987,428.206c0.667-0.012,1.205,0.142,1.715,0.333c0.502,0.202,0.955,0.465,1.368,0.782
						c0.413,0.317,0.783,0.689,1.106,1.123c0.315,0.443,0.6,0.926,0.756,1.576c-0.668,0.014-1.208-0.139-1.717-0.331
						c-0.502-0.202-0.956-0.465-1.367-0.784c-0.411-0.319-0.782-0.691-1.104-1.125C145.43,429.336,145.145,428.854,144.987,428.206z
						"/>
				</g>
				<g>
					<path style="fill:#E68F64;" d="M374.952,312.496c0.138,3.989,0.143,7.957,0.142,11.923l-0.032,11.884l-0.093,11.883
						c-0.041,3.965-0.09,7.933-0.274,11.921c-0.648-3.94-1.035-7.906-1.287-11.879c-0.265-3.973-0.349-7.955-0.345-11.936
						c0.041-3.981,0.169-7.961,0.477-11.932C373.836,320.39,374.264,316.428,374.952,312.496z"/>
				</g>
				<g>
					<path style="fill:#E68F64;" d="M368.925,349.814c0.289,4.075,0.432,8.136,0.558,12.195l0.311,12.169
						c0.063,4.056,0.153,8.111,0.178,12.172c0.037,4.061,0.055,8.125-0.073,12.208c-0.702-4.025-1.155-8.077-1.486-12.137
						c-0.343-4.06-0.519-8.13-0.617-12.202c-0.061-4.073-0.049-8.147,0.133-12.217C368.097,357.931,368.387,353.864,368.925,349.814
						z"/>
				</g>
				<g>
					<path style="fill:#E68F64;" d="M361.998,370.754c0.47,0.897,0.731,1.805,0.944,2.717c0.2,0.912,0.322,1.829,0.377,2.75
						c0.056,0.921,0.041,1.845-0.051,2.775c-0.104,0.93-0.259,1.863-0.623,2.808c-0.472-0.896-0.735-1.805-0.947-2.716
						c-0.2-0.912-0.322-1.829-0.375-2.75c-0.053-0.921-0.038-1.845,0.054-2.775C361.482,372.632,361.636,371.699,361.998,370.754z"
						/>
				</g>
				<g>
					<path style="fill:#E68F64;" d="M362.757,352.858c0.417,0.825,0.624,1.65,0.784,2.475c0.147,0.825,0.215,1.65,0.216,2.475
						c0.002,0.825-0.067,1.65-0.213,2.475c-0.158,0.825-0.367,1.65-0.786,2.475c-0.419-0.825-0.628-1.65-0.786-2.475
						c-0.147-0.825-0.215-1.65-0.214-2.475c0.001-0.825,0.069-1.65,0.216-2.475C362.133,354.507,362.341,353.682,362.757,352.858z"
						/>
				</g>
				<g>
					<path style="fill:#E68F64;" d="M373.717,47.558c5.109,2.995,9.568,7.148,13.161,11.925c3.625,4.767,6.423,10.135,8.503,15.741
						c2.046,5.621,3.397,11.466,4.17,17.357c0.801,5.891,1.017,11.83,0.869,17.74c-0.629-5.88-1.364-11.727-2.411-17.495
						c-1.074-5.76-2.48-11.45-4.505-16.913c-1.989-5.468-4.62-10.702-7.889-15.522C382.325,55.592,378.386,51.195,373.717,47.558z"
						/>
				</g>
				<g>
					<path style="fill:#E68F64;" d="M390.8,86.657c0.851,2.935,1.448,5.922,1.914,8.927c0.479,3.004,0.78,6.032,0.997,9.065
						c0.179,3.035,0.272,6.077,0.186,9.118c-0.074,3.04-0.281,6.079-0.748,9.099c-0.365-3.033-0.594-6.05-0.813-9.062l-0.62-9.026
						l-0.548-9.03C390.996,92.732,390.832,89.712,390.8,86.657z"/>
				</g>
				<g>
					<path style="fill:#E68F64;" d="M381.838,67.627c0.778,0.428,1.375,0.995,1.916,1.6c0.53,0.612,0.98,1.28,1.352,1.988
						c0.373,0.707,0.667,1.457,0.869,2.241c0.192,0.789,0.318,1.603,0.225,2.487c-0.683-0.568-1.183-1.192-1.651-1.825
						c-0.457-0.638-0.858-1.294-1.214-1.975c-0.356-0.68-0.668-1.383-0.932-2.122C382.149,69.276,381.919,68.511,381.838,67.627z"/>
				</g>
				<g>
					<path style="fill:#E68F64;" d="M359.346,45.922c1.675,0.441,3.243,1.177,4.714,2.069c1.471,0.892,2.85,1.943,4.098,3.132
						c1.253,1.184,2.369,2.511,3.335,3.935c0.964,1.424,1.777,2.954,2.298,4.607c-1.231-1.216-2.361-2.436-3.511-3.625
						c-1.149-1.189-2.317-2.336-3.5-3.468c-1.187-1.127-2.393-2.236-3.636-3.325C361.898,48.156,360.623,47.088,359.346,45.922z"/>
				</g>
				<g>
					<path style="fill:#E68F64;" d="M392.918,167.422c0.184,4.851,0.138,9.696-0.009,14.535c-0.135,4.841-0.418,9.674-0.756,14.503
						c-0.375,4.826-0.808,9.648-1.388,14.456c-0.568,4.809-1.238,9.607-2.138,14.377c0.071-4.854,0.308-9.686,0.583-14.513
						c0.263-4.828,0.61-9.648,0.95-14.468c0.377-4.817,0.745-9.635,1.198-14.45C391.798,177.048,392.276,172.234,392.918,167.422z"
						/>
				</g>
				<g>
					<path style="fill:#E68F64;" d="M384.039,218.826c0.543,2.066,0.849,4.162,1.043,6.264c0.207,2.102,0.256,4.213,0.241,6.321
						c-0.052,2.108-0.171,4.216-0.447,6.31c-0.264,2.094-0.639,4.178-1.253,6.226c-0.216-2.126-0.276-4.222-0.306-6.313
						c-0.042-2.091-0.01-4.173,0.007-6.256c0.054-2.082,0.091-4.164,0.203-6.253C383.627,223.036,383.755,220.943,384.039,218.826z"
						/>
				</g>
			</g>
		</g>
		<g>
			<g>
				<g>
					<path style="fill:#EFB954;" d="M43.465,126.392L31.861,76.426l3.55-0.824c4.172,9.297,14.356,15.311,18.72,24.52
						c3.959,8.355,2.847,18.881-2.77,26.224"/>
					<path style="fill:#EFB954;" d="M45.923,125.821L34.319,75.855l-3.55,0.824c0.353,10.184-6.139,20.071-5.999,30.26
						c0.128,9.245,5.765,18.204,14.044,22.319"/>
				</g>
				
					<rect x="35.949" y="75.656" transform="matrix(-0.9741 0.2262 -0.2262 -0.9741 95.0069 177.7885)" style="fill:#50191B;" width="2.734" height="37.363"/>
				<path style="fill:#50191B;" d="M35.767,113.195c0.69,2.973,3.66,4.823,6.633,4.133c2.973-0.69,4.823-3.66,4.133-6.633
					c-0.69-2.973-3.66-4.823-6.633-4.133C36.927,107.253,35.076,110.223,35.767,113.195z"/>
			</g>
			<g>
				<path style="fill:#EFB954;" d="M60.34,234.37l18.337-4.258c-1.191-4.928-2.381-9.972-3.556-15.038l-18.217,4.231
					C58.083,224.369,59.237,229.422,60.34,234.37z"/>
				<path style="fill:#EFB954;" d="M70.331,289.015l23.46-5.448c-1.688-5.155-3.269-10.099-4.712-14.77l-21.027,4.883
					C68.815,278.51,69.575,283.644,70.331,289.015z"/>
				<path style="fill:#D75A19;" d="M90.162,432.954c7.998,34.438,57.259,22.998,49.261-11.44
					c-6.368-27.42-30.317-91.178-45.632-137.946l-23.46,5.448C77.194,337.747,83.794,405.534,90.162,432.954z"/>
				<path style="fill:#7CA5C5;" d="M65.009,256.337c1.02,5.113,2.034,10.96,3.043,17.344l21.027-4.883
					c-1.908-6.175-3.575-11.871-4.912-16.91c-1.787-6.734-3.638-14.114-5.489-21.777L60.34,234.37
					C62.055,242.064,63.646,249.505,65.009,256.337z"/>
				<path style="fill:#D75A19;" d="M58.48,138.176l-10.263,2.383l-10.263,2.383c0,0,6.381,24.222,13.414,53.13l18.484-4.292
					C63.427,162.731,58.48,138.176,58.48,138.176z"/>
				<path style="fill:#D75A19;" d="M54.978,211.098c0.646,2.729,1.29,5.469,1.927,8.206l18.217-4.231
					c-0.635-2.738-1.264-5.48-1.887-8.215L54.978,211.098z"/>
				<path style="fill:#EFB954;" d="M69.853,191.78l-18.484,4.292c1.194,4.906,2.406,9.946,3.609,15.026l18.257-4.24
					C72.076,201.768,70.943,196.71,69.853,191.78z"/>
			</g>
			<g style="opacity:0.24;">
				<path style="fill:#50191B;" d="M109.017,432.204c-9.865-8.464-14.336-21.541-17.334-34.189
					c-5.834-24.617-7.688-49.969-10.474-75.114c-6.805-61.425-19.301-122.215-37.242-181.355l-6.014,1.397
					c0,0,6.381,24.222,13.414,53.13c1.194,4.906,2.406,9.946,3.609,15.026c0.646,2.729,1.29,5.469,1.927,8.206
					c1.178,5.065,2.333,10.118,3.436,15.066c1.715,7.694,3.306,15.135,4.669,21.967c1.02,5.113,2.034,10.96,3.043,17.344
					c0.763,4.829,1.523,9.963,2.279,15.335c6.863,48.732,13.463,116.519,19.83,143.938c6.318,27.207,38.385,25.775,47.632,6.994
					C127.641,441.447,116.832,438.909,109.017,432.204z"/>
			</g>
			
				<rect x="33.047" y="125.347" transform="matrix(0.9741 -0.2262 0.2262 0.9741 -28.6221 14.002)" style="fill:#7CA5C5;" width="27.474" height="13.083"/>
			<path style="fill:#EFB954;" d="M35.938,148.827l28.046-6.513c2.6-0.604,4.219-3.201,3.615-5.802l0,0
				c-0.604-2.6-3.201-4.219-5.802-3.615l-28.046,6.513c-2.6,0.604-4.219,3.202-3.615,5.802l0,0
				C30.74,147.813,33.338,149.431,35.938,148.827z"/>
			<g>
				<g>
					<path style="fill:#F2EDE2;" d="M39.099,84.219c1.789,2.132,3.731,4.007,5.71,5.909c1.983,1.891,3.969,3.847,5.703,6.102
						c1.698,2.259,3.103,4.903,3.624,7.745c0.553,2.816,0.374,5.765-0.619,8.371c0.172-2.775-0.12-5.471-0.895-7.994
						c-0.776-2.523-2.083-4.804-3.704-6.917c-1.591-2.137-3.474-4.118-5.245-6.246C41.895,89.078,40.183,86.794,39.099,84.219z"/>
				</g>
				<g>
					<path style="fill:#F2EDE2;" d="M52.958,115.397c0.324,0.563,0.419,1.111,0.448,1.65c0.016,0.536-0.065,1.059-0.228,1.554
						c-0.162,0.495-0.409,0.963-0.742,1.384c-0.343,0.416-0.748,0.799-1.346,1.056c-0.152-0.631-0.144-1.154-0.107-1.657
						c0.047-0.498,0.147-0.963,0.297-1.411c0.15-0.449,0.347-0.882,0.606-1.309C52.157,116.237,52.461,115.813,52.958,115.397z"/>
				</g>
			</g>
			<g>
				<path style="fill:#F2EDE2;" d="M33.279,142.021c2.142-0.709,4.309-1.312,6.48-1.898c2.168-0.597,4.354-1.118,6.54-1.639
					c2.191-0.497,4.383-0.993,6.592-1.413l3.315-0.626c1.113-0.173,2.219-0.38,3.339-0.524c-1.069,0.365-2.152,0.666-3.228,1.001
					l-3.252,0.898c-2.168,0.597-4.354,1.118-6.54,1.637c-2.192,0.496-4.383,0.992-6.593,1.411
					C37.725,141.299,35.514,141.713,33.279,142.021z"/>
			</g>
			<g>
				<path style="fill:#F2EDE2;" d="M86.194,276.095c4.142,10.333,8.003,20.761,11.766,31.223c1.908,5.222,3.714,10.478,5.568,15.718
					l5.409,15.771l5.256,15.823c1.698,5.293,3.449,10.567,5.094,15.878c3.345,10.602,6.59,21.238,9.552,31.97
					c-4.145-10.332-8.008-20.76-11.77-31.221c-1.909-5.221-3.711-10.478-5.567-15.718l-5.405-15.772l-5.252-15.824
					c-1.7-5.292-3.448-10.568-5.093-15.878C92.406,297.461,89.16,286.825,86.194,276.095z"/>
			</g>
			<g>
				<path style="fill:#F2EDE2;" d="M83.131,264.336c-1.89-4.261-3.457-8.626-4.883-13.033c-0.738-2.197-1.364-4.425-2.03-6.642
					c-0.631-2.227-1.211-4.467-1.806-6.704c-0.539-2.251-1.083-4.501-1.586-6.76c-0.461-2.269-0.968-4.527-1.356-6.812
					c-0.831-4.557-1.515-9.144-1.863-13.793c1.57,4.389,2.888,8.821,4.143,13.264c0.659,2.214,1.216,4.452,1.837,6.673l1.733,6.695
					l1.638,6.719c0.507,2.251,1.071,4.486,1.54,6.748C81.495,255.2,82.433,259.728,83.131,264.336z"/>
			</g>
		</g>
		<g>
			<path style="fill:#712200;" d="M143.599,324.628c-6.768-4.687-15.592-5.517-23.996-5.153c-2.787,0.121-5.643,0.375-8.217,1.549
				c-1.942,0.886-3.634,2.258-5.226,3.696c-11.201,10.122-18.477,24.493-19.875,39.256c-0.211,2.232-0.286,4.529,0.424,6.616
				c0.69,2.025,2.067,3.706,3.357,5.393c4.335,5.668,7.958,11.892,10.765,18.49c1.607,3.777,3.008,7.777,5.796,10.76
				c2.766,2.959,6.632,4.627,10.452,6.06c4.409,1.654,8.905,3.097,13.467,4.322c3.554,0.954,9.851,2.51,13.52,1.73
				c1.971-0.419,3.832-1.285,5.672-2.144c5.906-2.757,9.307-6.279,14.521-10.234c11.668-8.852,14.416-20.029,17.756-34.113
				c0.574-2.419,1.055-4.963,0.412-7.313c-0.501-1.833-1.65-3.397-2.915-4.789c-3.234-3.557-3.157-8.986-7.095-11.701
				c-3.619-2.495-6.805-5.804-10.564-8.04c-2.776-1.651-5.521-2.659-7.99-4.85C150.367,331.059,147.471,327.309,143.599,324.628z"/>
			<g>
				<path style="fill:#BF2200;" d="M129.53,357.773c4.542-2.574,10.146-3.201,15.145-1.696c-1.913-5.337-8.084-8.754-13.622-7.544
					c-2.83,0.618-5.351,2.268-7.438,4.278c-2.147,2.067-3.925,4.597-4.708,7.473c-0.712,2.617-0.976,7.766,2.423,6.595
					C123.348,366.182,126.719,359.366,129.53,357.773z"/>
				<path style="fill:#9C2200;" d="M147.044,366.823c-2.168,4.909-7.219,8.411-12.577,8.718c4.467,2.773,10.828,2.956,14.641-0.663
					c1.704-1.617,2.755-3.799,3.595-5.994c1.022-2.668,1.793-5.591,1.099-8.363c-0.803-3.208-4.351-7.13-7.712-7.559
					C147.981,357.549,149.182,361.981,147.044,366.823z"/>
				<path style="fill:#9C2200;" d="M129.626,375.342c2.283,4.3,7.238,7.026,12.092,6.652c-3.642,1.472-7.644,2.041-11.552,1.644
					c-1.915-0.195-3.926-0.682-5.259-2.07c-0.714-0.743-1.179-1.693-1.517-2.668c-1.137-3.283-0.883-7.024,0.686-10.124
					c1.035-2.045,2.827-4.266,4.962-5.156c0.349,1.644-0.8,3.832-0.826,5.69C128.183,371.397,128.646,373.495,129.626,375.342z"/>
				<path style="fill:#9C2200;" d="M133.794,347.171c-5.736,0.382-11.18,3.814-13.996,8.825c-2.233,3.973-2.816,8.632-3.356,13.158
					c-2.242-3.52-3.697-7.537-4.23-11.676c-0.461-3.585-0.212-7.341,1.307-10.622c3.165-6.839,11.187-10.221,18.715-10.558
					c2.424-0.108,4.887,0.038,7.199,0.773c5.725,1.819,10.057,7.766,10.114,13.777c0.049,5.129-3.505,0.055-5.837-1.3
					C140.732,347.818,137.239,346.942,133.794,347.171z"/>
				<path style="fill:#BF2200;" d="M162.455,366.861c0.082,7.974-3.913,15.884-10.38,20.55c-1.692,1.221-3.528,2.224-5.359,3.224
					c-1.061,0.58-2.197,1.177-3.404,1.102c-2.25-0.14-3.647-2.434-4.65-4.453c3.674-3.704,8.689-5.89,12.221-9.73
					c5.776-6.28,6.257-16.763,1.08-23.546c-0.369-0.484-0.771-0.966-0.944-1.549c-0.166-0.56-0.103-1.158-0.116-1.742
					c-0.032-1.447-2.368-5.114-0.035-4.98c1.521,0.087,4.617,4.03,5.52,5.095C160.154,355.272,162.395,361.026,162.455,366.861z"/>
				<path style="fill:#BF2200;" d="M122.238,382.317c-3.211-3.387-4.471-8.508-3.198-12.999c-1.485,1.458-4.123,0.952-5.608-0.507
					c-1.484-1.458-2.108-3.556-2.676-5.558c-0.894-3.147-1.787-6.295-2.681-9.443c-2.107,5.587-4.137,11.378-3.965,17.347
					c0.225,7.79,4.482,15.355,11.024,19.589c6.542,4.234,15.187,5.021,22.386,2.036c0.542-0.225-2.482-2.041-2.531-2.201
					c-0.516-1.676,2.656-2.968-0.466-4.004c-1.985-0.659-4.388-0.037-6.497-0.696C125.841,385.198,123.816,383.982,122.238,382.317z
					"/>
				<path style="fill:#BF2200;" d="M139.179,332.707c-8.728-2.322-18.255,1.368-24.775,7.618
					c-6.52,6.25-10.459,14.714-13.361,23.267c-1.539-4.91-2.312-10.058-2.284-15.203c0.013-2.391,0.22-4.86,1.333-6.975
					c0.796-1.513,2.013-2.759,3.279-3.908c3.469-3.15,7.411-5.727,11.335-8.289c3.308-2.16,6.78-4.38,10.708-4.8
					c3.383-0.361,6.767,0.663,9.889,2.014c3.687,1.595,7.169,3.663,10.333,6.138c0.392,0.307,0.823,0.74,0.696,1.221
					c-0.157,0.596-0.973,0.657-1.583,0.57c-2.936-0.414-5.809-1.27-8.494-2.53"/>
				<path style="fill:#9C2200;" d="M170.06,351.284c1.36,1.324,2.713,2.701,3.609,4.375c1.144,2.138,1.463,4.627,1.447,7.052
					c-0.061,9.365-4.802,18.124-10.717,25.385c-1.969,2.418-4.126,4.757-6.819,6.328c-2.957,1.725-6.383,2.426-9.74,3.1
					c-3.04,0.611-6.297,1.204-9.157,0.006c8.108-3.693,16.444-7.547,22.497-14.085c1.572-1.698,2.986-3.591,3.802-5.756
					c1.108-2.942,1.042-6.201,0.581-9.311c-1.169-7.898-4.774-15.222-9.42-21.642c-1.139-1.574-6.643-6.526-6.226-8.34
					c0.908-3.957,7.012,1.534,8.003,2.306C162.158,344.004,166.212,347.538,170.06,351.284z"/>
				<path style="fill:#9C2200;" d="M107.626,387.941c5.056,5.926,13.285,7.801,20.921,9.34c6.57,1.324,13.167,2.652,19.859,3.032
					c-8.678,3.208-18.314,4.959-27.172,2.287c-6.094-1.838-11.492-5.719-15.498-10.667c-1.691-2.089-3.142-4.359-4.56-6.641
					c-1.636-2.634-3.238-5.3-4.505-8.13c-4.282-9.567-4.439-20.898-0.425-30.58c2.668,6.75,0.982,14.17,4.453,20.671
					c1.663,3.114,1.393,6.888,2.152,10.312C103.686,381.319,105.104,384.986,107.626,387.941z"/>
				<path style="fill:#BF2200;" d="M142.339,358.72c0.62,0.03,1.274,0.077,1.787,0.426c1.028,0.697,1.015,2.206,0.751,3.42
					c-0.69,3.173-2.341,6.111-4.585,8.458c-0.654,0.685-1.383,1.337-2.272,1.664s-1.972,0.269-2.682-0.357
					c-0.676-0.596-0.888-1.589-0.75-2.48c0.138-0.89,0.575-1.703,1.027-2.483c0.817-1.409,1.706-2.776,2.663-4.095
					c0.011-0.473-0.736-0.404-1.142-0.159c-0.841,0.508-1.683,1.016-2.524,1.523c-0.642,0.387-1.604,0.716-2.024,0.095
					c-1.065-1.577,1.077-4.701,2.424-5.301C137.189,358.462,140.02,358.607,142.339,358.72z"/>
				<path style="fill:#BF2200;" d="M157.148,396.397c-8.584,5.873-18.662,9.351-28.935,10.974
					c5.543,2.267,11.417,3.722,17.378,4.303c1.748,0.171,3.529,0.265,5.247-0.099c2.632-0.558,4.923-2.147,7-3.857
					c8.73-7.19,15.045-17.263,17.713-28.254c0.193-0.794,1.046-3.44,0.502-4.127c-0.968-1.223-1.521,1.107-1.925,1.924
					c-1.29,2.611-2.85,5.091-4.606,7.414C166.081,389.226,161.855,393.177,157.148,396.397z"/>
			</g>
		</g>
		<g>
			<path style="fill:#712200;" d="M237.326,369.05c-5.376-3.723-12.386-4.383-19.061-4.093c-2.214,0.096-4.483,0.297-6.528,1.231
				c-1.542,0.704-2.887,1.793-4.151,2.936c-8.898,8.04-14.677,19.456-15.788,31.182c-0.168,1.773-0.227,3.598,0.337,5.256
				c0.548,1.609,1.642,2.944,2.667,4.284c3.444,4.502,6.322,9.446,8.551,14.687c1.276,3.001,2.389,6.177,4.604,8.547
				c2.197,2.35,5.268,3.676,8.302,4.814c3.502,1.314,7.073,2.46,10.697,3.433c2.823,0.758,7.825,1.994,10.739,1.374
				c1.566-0.333,3.044-1.021,4.506-1.703c4.691-2.19,7.393-4.987,11.535-8.13c9.268-7.031,11.451-15.91,14.105-27.098
				c0.456-1.922,0.838-3.942,0.327-5.809c-0.398-1.456-1.31-2.698-2.316-3.804c-2.569-2.825-2.508-7.138-5.636-9.295
				c-2.875-1.982-5.405-4.611-8.392-6.387c-2.205-1.311-4.386-2.112-6.347-3.853C242.702,374.159,240.401,371.18,237.326,369.05z"/>
			<g>
				<path style="fill:#BF2200;" d="M226.15,395.379c3.608-2.044,8.059-2.543,12.03-1.348c-1.519-4.239-6.421-6.954-10.821-5.992
					c-2.248,0.491-4.251,1.802-5.909,3.398c-1.705,1.642-3.118,3.651-3.74,5.936c-0.566,2.079-0.775,6.169,1.924,5.238
					C221.239,402.059,223.917,396.644,226.15,395.379z"/>
				<path style="fill:#9C2200;" d="M240.062,402.568c-1.722,3.899-5.734,6.681-9.99,6.925c3.548,2.203,8.601,2.348,11.63-0.527
					c1.354-1.285,2.188-3.018,2.856-4.761c0.812-2.12,1.424-4.441,0.873-6.643c-0.638-2.548-3.456-5.663-6.126-6.004
					C240.806,395.201,241.76,398.721,240.062,402.568z"/>
				<path style="fill:#9C2200;" d="M226.227,409.335c1.813,3.416,5.749,5.581,9.605,5.284c-2.893,1.169-6.072,1.621-9.176,1.305
					c-1.521-0.155-3.118-0.542-4.178-1.644c-0.568-0.59-0.937-1.345-1.205-2.119c-0.903-2.608-0.702-5.579,0.545-8.042
					c0.822-1.624,2.246-3.388,3.942-4.096c0.278,1.306-0.635,3.044-0.656,4.52C225.08,406.2,225.448,407.867,226.227,409.335z"/>
				<path style="fill:#9C2200;" d="M229.537,386.957c-4.556,0.303-8.881,3.03-11.118,7.01c-1.774,3.156-2.237,6.857-2.666,10.452
					c-1.781-2.796-2.937-5.987-3.36-9.274c-0.367-2.848-0.168-5.831,1.038-8.437c2.514-5.432,8.886-8.119,14.866-8.387
					c1.925-0.086,3.882,0.03,5.719,0.614c4.547,1.445,7.988,6.169,8.034,10.944c0.039,4.075-2.784,0.043-4.636-1.032
					C235.048,387.471,232.274,386.775,229.537,386.957z"/>
				<path style="fill:#BF2200;" d="M252.304,402.598c0.065,6.334-3.108,12.617-8.245,16.324c-1.344,0.969-2.802,1.767-4.256,2.561
					c-0.843,0.461-1.745,0.935-2.704,0.876c-1.787-0.111-2.897-1.934-3.693-3.537c2.918-2.942,6.902-4.679,9.707-7.729
					c4.588-4.989,4.97-13.316,0.858-18.703c-0.293-0.384-0.613-0.767-0.75-1.23c-0.132-0.445-0.082-0.92-0.092-1.384
					c-0.026-1.149-1.881-4.062-0.028-3.956c1.208,0.069,3.667,3.201,4.385,4.047C250.476,393.392,252.256,397.963,252.304,402.598z"
					/>
				<path style="fill:#BF2200;" d="M220.358,414.875c-2.551-2.691-3.551-6.758-2.54-10.325c-1.179,1.158-3.275,0.756-4.454-0.403
					c-1.179-1.159-1.674-2.825-2.126-4.415c-0.71-2.5-1.42-5-2.129-7.5c-1.674,4.438-3.286,9.038-3.149,13.779
					c0.179,6.188,3.56,12.197,8.757,15.56c5.197,3.364,12.063,3.988,17.782,1.617c0.43-0.178-1.971-1.621-2.011-1.748
					c-0.41-1.331,2.11-2.357-0.371-3.18c-1.577-0.523-3.486-0.029-5.161-0.553C223.22,417.164,221.612,416.197,220.358,414.875z"/>
				<path style="fill:#BF2200;" d="M233.815,375.468c-6.933-1.845-14.501,1.087-19.68,6.051
					c-5.179,4.964-8.308,11.688-10.613,18.482c-1.222-3.9-1.837-7.989-1.814-12.076c0.01-1.899,0.175-3.86,1.059-5.541
					c0.632-1.202,1.599-2.192,2.604-3.105c2.756-2.502,5.887-4.549,9.004-6.584c2.628-1.716,5.386-3.479,8.506-3.813
					c2.687-0.287,5.375,0.527,7.855,1.6c2.929,1.267,5.694,2.91,8.208,4.876c0.312,0.244,0.654,0.588,0.553,0.97
					c-0.125,0.474-0.772,0.522-1.257,0.453c-2.332-0.329-4.615-1.009-6.747-2.01"/>
				<path style="fill:#9C2200;" d="M258.345,390.225c1.08,1.052,2.155,2.145,2.866,3.475c0.909,1.699,1.162,3.676,1.15,5.602
					c-0.048,7.439-3.815,14.396-8.513,20.165c-1.564,1.921-3.277,3.778-5.416,5.027c-2.349,1.37-5.071,1.927-7.737,2.463
					c-2.415,0.485-5.002,0.956-7.274,0.005c6.441-2.933,13.062-5.995,17.87-11.188c1.249-1.349,2.372-2.852,3.02-4.573
					c0.88-2.337,0.827-4.926,0.462-7.396c-0.928-6.274-3.792-12.091-7.483-17.191c-0.905-1.25-5.277-5.183-4.946-6.624
					c0.721-3.143,5.57,1.218,6.357,1.832C252.067,384.441,255.288,387.248,258.345,390.225z"/>
				<path style="fill:#9C2200;" d="M208.751,419.342c4.016,4.707,10.553,6.197,16.619,7.419c5.219,1.052,10.46,2.107,15.775,2.408
					c-6.894,2.548-14.547,3.939-21.584,1.817c-4.841-1.46-9.129-4.543-12.31-8.473c-1.343-1.659-2.496-3.462-3.622-5.275
					c-1.3-2.092-2.572-4.21-3.579-6.458c-3.401-7.599-3.526-16.6-0.337-24.291c2.119,5.362,0.78,11.256,3.537,16.42
					c1.321,2.474,1.106,5.471,1.71,8.191C205.621,414.082,206.748,416.995,208.751,419.342z"/>
				<path style="fill:#BF2200;" d="M236.325,396.131c0.492,0.023,1.012,0.061,1.42,0.338c0.816,0.554,0.806,1.753,0.597,2.717
					c-0.548,2.521-1.859,4.854-3.642,6.719c-0.52,0.544-1.099,1.062-1.805,1.322c-0.706,0.26-1.566,0.214-2.131-0.284
					c-0.537-0.473-0.706-1.262-0.596-1.97c0.11-0.707,0.457-1.353,0.816-1.972c0.649-1.119,1.355-2.205,2.115-3.253
					c0.009-0.376-0.585-0.321-0.907-0.126c-0.668,0.403-1.337,0.807-2.005,1.21c-0.51,0.308-1.274,0.569-1.608,0.076
					c-0.846-1.253,0.856-3.734,1.926-4.211C232.234,395.926,234.483,396.041,236.325,396.131z"/>
				<path style="fill:#BF2200;" d="M248.089,426.059c-6.818,4.665-14.824,7.428-22.985,8.717c4.403,1.801,9.069,2.957,13.804,3.418
					c1.389,0.135,2.803,0.21,4.168-0.079c2.091-0.443,3.911-1.705,5.561-3.064c6.935-5.711,11.951-13.713,14.07-22.443
					c0.153-0.631,0.831-2.732,0.399-3.279c-0.769-0.971-1.208,0.88-1.529,1.528c-1.025,2.074-2.264,4.044-3.659,5.889
					C255.184,420.363,251.827,423.501,248.089,426.059z"/>
			</g>
		</g>
		<g>
			<path style="fill:none;stroke:#50191B;stroke-linecap:round;stroke-miterlimit:10;" d="M153.803,168.948
				c14.211-8.805,40.535,0.937,57.13-1.08c6.735-0.819,13.312-3.951,20.025-2.964c4.534,0.667,8.569,3.152,12.902,4.644
				c6.597,2.272,13.738,2.198,20.715,2.099c38.294-0.541,76.588-1.083,114.883-1.624"/>
			<path style="fill:none;stroke:#50191B;stroke-linecap:round;stroke-miterlimit:10;" d="M151.662,187.231
				c17.119-4.408,35.156-5.211,52.599-2.343c9.532,1.567,19.02,4.226,28.667,3.73c6.587-0.339,13.063-2.148,19.659-2.106
				c9.345,0.06,18.505,3.835,27.807,2.934c6.249-0.605,12.217-3.305,18.496-3.364c5.181-0.049,10.187,1.702,15.282,2.643
				c16.926,3.128,46.561-2.927,63.62-0.637"/>
			<path style="fill:none;stroke:#50191B;stroke-linecap:round;stroke-miterlimit:10;" d="M147.756,207.785
				c3.984-3.151,9.37-4.457,14.355-3.483c3.615,0.707,6.925,2.522,10.5,3.41c9.671,2.402,19.52-2.191,29.328-3.955
				c12.407-2.231,25.113,0.11,37.586,1.941c40.731,5.977,102.134,6.98,142.999,2.001"/>
			<path style="fill:none;stroke:#50191B;stroke-linecap:round;stroke-miterlimit:10;" d="M146.606,229.469
				c10.333-4.456,21.752-6.369,32.973-5.524c13.02,0.981,25.737,5.596,38.78,4.968c8.551-0.412,16.838-3.069,25.345-4.033
				c9.833-1.114,19.765,0.051,29.592,1.216c11.648,1.38,23.296,2.761,34.944,4.141c14.266,1.691,76.169-1.896,76.169-1.896"/>
			<path style="fill:none;stroke:#50191B;stroke-linecap:round;stroke-miterlimit:10;" d="M142.585,250.066
				c20.66-2.037,41.583-4.068,62.099-0.892c6.967,1.078,13.857,2.754,20.889,3.256c9.312,0.664,18.628-0.745,27.937-1.433
				c10.918-0.808,21.881-0.625,32.827-0.442c18.373,0.307,75.785,2.145,94.157,2.452"/>
			<path style="fill:none;stroke:#50191B;stroke-linecap:round;stroke-miterlimit:10;" d="M138.802,272.279
				c13.316-8.491,30.581-1.122,46.362-0.527c6.665,0.251,13.308-0.773,19.972-1.05c8.965-0.372,17.922,0.609,26.867,1.307
				c33.564,2.619,113.502-1.411,147.14-2.775"/>
			<path style="fill:none;stroke:#50191B;stroke-linecap:round;stroke-miterlimit:10;" d="M136.826,297.476
				c23.114-10.564,50.028-1.119,75.418-2.22c12.819-0.556,25.61-3.858,38.341-2.265c7.998,1.001,15.644,3.905,23.595,5.226
				c15.29,2.541,85.104-1.255,100.229-4.638"/>
			<path style="fill:none;stroke:#50191B;stroke-linecap:round;stroke-miterlimit:10;" d="M155.607,318.369
				c14.699-2.757,29.777-2.575,44.725-2.103c37.42,1.182,125.988,4.53,163.258,0.981"/>
			<path style="fill:none;stroke:#50191B;stroke-linecap:round;stroke-miterlimit:10;" d="M180.739,341.854
				c16.548-7.598,35.573,0.61,53.672,2.607c24.053,2.653,88.075-3.663,112.273-3.546"/>
			<path style="fill:none;stroke:#50191B;stroke-linecap:round;stroke-miterlimit:10;" d="M248.693,366.563
				c21.12-7.627,76.536,1.142,98.668-2.656"/>
		</g>
		<g>
			<path style="fill:#253A4E;" d="M465.592,109.687c-11.456-2.763-22.724,3.734-30.977,11.41c-0.644,0.599-1.262,1.219-1.887,1.833
				c-0.778,9.166-1.002,18.399-0.653,27.635c-1.232-7.957-2.208-15.941-2.939-23.936c-0.839,0.913-1.659,1.842-2.466,2.781
				c-0.483,9.12-0.759,18.259-0.816,27.408c-2.215-6.63-3.854-13.418-4.899-20.267c-9.074,12.19-16.33,25.836-24.267,38.847
				c-5.582,9.15-11.582,18.108-17.411,27.148c-2.832,14.296-4.316,28.895-4.405,43.56c-1.727-10.463-2.775-21.003-3.151-31.537
				c-0.703,1.158-1.397,2.321-2.085,3.487c-0.933,12.894-1.566,25.821-1.882,38.768c-2.422-8.717-4.06-17.606-4.907-26.533
				c-3.466,6.723-9.51,30.168-10.535,37.688c-4.661,34.209-8.16,35.668-5.63,62.508c-3.202-11.617-6.405-23.234-9.607-34.85
				c-1.361,23.675-0.611,48.994,12.687,69.53c-11.117-13.657-17.864-30.519-19.026-47.551c-5.135,18.396-0.53,39.449,12.013,54.923
				c3.602,4.443,7.729,8.475,11.276,12.959c2.619,3.31,9.024,11.536,9.024,11.536s19.24-9.624,24.662-14.278
				c16.136-13.851,28.345-31.903,35.1-51.899c-7.581,8.294-16.346,15.565-25.992,21.56c12.701-13.878,22.382-30.354,28.289-48.147
				c-7.048,8.19-14.096,16.38-21.144,24.57c8.659-28.367,20.355-55.755,34.847-81.599c1.653-2.949,3.346-5.881,5.061-8.805
				c-8.753,4.961-17.948,9.324-27.072,13.64c12.028-8.56,23.712-17.561,35.02-26.979c1.002-1.668,2.003-3.337,3.001-5.007
				c-8.839,4.769-17.941,9.106-27.264,12.983c12.577-9.368,24.83-19.134,36.744-29.268c7.718-13.793,14.597-27.943,19.053-43.113
				c2.786-9.486,4.582-19.623,2.177-29.416C483.127,121.48,475.696,112.124,465.592,109.687z"/>
			<path style="fill:#7CA5C5;" d="M465.262,107.978c-11.456-2.763-22.724,3.734-30.977,11.41c-0.644,0.599-1.262,1.219-1.887,1.833
				c-0.778,9.166-1.002,18.399-0.653,27.635c-1.232-7.957-2.208-15.941-2.939-23.936c-0.839,0.913-1.659,1.842-2.466,2.781
				c-0.483,9.12-0.759,18.258-0.816,27.408c-2.216-6.63-3.854-13.418-4.899-20.267c-9.074,12.19-16.33,25.836-24.267,38.847
				c-5.582,9.15-11.582,18.108-17.411,27.148c-2.832,14.296-4.316,28.895-4.405,43.56c-1.727-10.463-2.775-21.003-3.151-31.537
				c-0.703,1.158-1.397,2.321-2.085,3.487c-0.933,12.894-1.566,25.821-1.882,38.768c-2.422-8.717-4.059-17.606-4.907-26.533
				c-3.466,6.723-9.51,30.168-10.535,37.688c-4.661,34.209-8.16,35.668-5.63,62.508c-3.202-11.617-6.405-23.234-9.607-34.85
				c-1.361,23.675-0.611,48.994,12.687,69.53c-11.117-13.657-17.864-30.519-19.027-47.551c-5.135,18.396-0.53,39.449,12.013,54.923
				c3.602,4.443,7.729,8.475,11.276,12.959c2.619,3.31,9.024,11.536,9.024,11.536s19.24-9.624,24.662-14.278
				c16.136-13.85,28.345-31.903,35.1-51.899c-7.581,8.294-16.346,15.565-25.992,21.56c12.701-13.878,22.382-30.354,28.289-48.147
				c-7.048,8.19-14.096,16.38-21.144,24.57c8.659-28.367,20.355-55.755,34.847-81.599c1.654-2.949,3.347-5.881,5.061-8.805
				c-8.753,4.961-17.948,9.324-27.072,13.64c12.028-8.56,23.711-17.561,35.02-26.979c1.002-1.668,2.003-3.337,3.001-5.007
				c-8.839,4.77-17.941,9.106-27.264,12.983c12.577-9.368,24.83-19.134,36.744-29.268c7.717-13.793,14.597-27.943,19.053-43.113
				c2.787-9.486,4.582-19.623,2.177-29.416C482.797,119.772,475.366,110.415,465.262,107.978z"/>
			<path style="opacity:0.36;fill:#4C6E91;" d="M361.448,381.305c-4.792-7.154-8.196-15.233-9.968-23.659
				c2.704,4.401,5.802,8.559,9.244,12.409c-9.361-22.031-11.804-46.943-6.9-70.372c0.775,11.713,2.859,23.339,6.202,34.592
				c-0.267-19.847,0.397-39.707,1.989-59.491c3.433,10.14,5.017,20.904,4.65,31.603c1.925-17.066,3.85-34.133,5.775-51.199
				c3.188,8.699,4.494,18.083,3.803,27.323c3.319-37.438,15.165-74.525,37.049-105.082c-4.711,9.602-7.065,20.35-6.799,31.042
				c8.556-22.154,20.896-42.84,36.324-60.894c-0.943,2.803-1.885,5.606-2.828,8.408c6.544-13.123,13.926-25.827,22.087-38.011
				c-5.311,26.488-11.009,53.887-26.854,75.768c7.204-6.662,14.408-13.325,21.612-19.988c-11.145,23.62-25.289,45.824-41.984,65.909
				c2.813-1.546,5.626-3.091,8.439-4.637c-8.524,9.997-16.382,20.56-23.507,31.598c4.911-2.526,9.489-5.698,13.579-9.409
				c-9.213,18.768-18.425,37.535-27.638,56.303c5.153-4.027,9.709-8.818,13.474-14.166c-4.009,17.145-10.946,33.602-20.421,48.443
				c4.061-4.498,8.613-8.553,13.548-12.071c-3.964,9.719-9.123,18.949-15.325,27.416c4.955-3.134,9.909-6.268,14.864-9.402
				c-5.815,13.985-15.7,26.249-28.13,34.903"/>
			<path style="fill:#50191B;" d="M348.347,453.897c3.704-24.067,12.556-76.795,17.871-100.567
				c5.315-23.768,11.6-47.332,19.204-70.472c7.603-23.134,16.531-45.846,27.108-67.771c10.571-21.921,22.803-43.05,36.861-62.89
				c-13.742,20.061-25.619,41.351-35.817,63.384c-10.204,22.038-18.743,44.814-25.952,67.981
				c-7.21,23.173-13.098,46.74-18.017,70.497c-4.918,23.761-10.703,61.756-14.014,85.797L348.347,453.897z"/>
			<path style="fill:#E68F64;" d="M347.935,451.76c3.704-24.066,12.556-76.795,17.871-100.567
				c5.315-23.768,11.6-47.332,19.204-70.472c7.603-23.134,16.531-45.846,27.108-67.771c10.571-21.921,22.803-43.05,36.861-62.89
				c-13.742,20.061-25.619,41.351-35.817,63.384c-10.204,22.038-18.743,44.814-25.952,67.981
				c-7.211,23.173-13.098,46.74-18.017,70.497c-4.918,23.761-10.703,61.756-14.015,85.797L347.935,451.76z"/>
			<g>
				<g>
					<path style="fill:#F2EDE2;" d="M392.07,249.502l-0.819-3.747l-0.703-3.773l-0.556-3.799l-0.438-3.816
						c-0.502-5.098-0.637-10.23-0.497-15.352c0.193-5.12,0.666-10.233,1.498-15.287l0.687-3.779l0.803-3.755l0.949-3.719
						l1.062-3.686l-0.906,3.725l-0.79,3.748l-0.708,3.762l-0.595,3.78c-0.725,5.049-1.2,10.134-1.341,15.231
						c-0.194,5.096-0.051,10.201,0.341,15.287l0.347,3.811l0.461,3.8l0.544,3.792L392.07,249.502z"/>
				</g>
				<g>
					<path style="fill:#F2EDE2;" d="M397.801,230.007l-0.543-3.71l-0.435-3.726l-0.293-3.741l-0.182-3.75
						c-0.165-5.004,0.018-10.019,0.454-15.008c0.49-4.984,1.237-9.946,2.321-14.834l0.871-3.652l0.978-3.623l1.115-3.582
						l1.219-3.546l-1.064,3.592l-0.958,3.62l-0.884,3.636l-0.78,3.659c-0.977,4.89-1.725,9.825-2.162,14.791
						c-0.489,4.961-0.662,9.949-0.605,14.936l0.092,3.74l0.198,3.737l0.274,3.735L397.801,230.007z"/>
				</g>
				<g>
					<path style="fill:#F2EDE2;" d="M413.967,199.331c-0.407-2.953-0.656-5.927-0.807-8.906c-0.153-2.979-0.159-5.965-0.112-8.948
						c0.101-2.982,0.26-5.963,0.56-8.931c0.301-2.968,0.699-5.925,1.255-8.854c-0.284,2.967-0.555,5.929-0.749,8.896
						c-0.195,2.966-0.358,5.934-0.407,8.905c-0.102,2.97-0.086,5.942-0.042,8.915C413.71,193.382,413.831,196.354,413.967,199.331z"
						/>
				</g>
				<g>
					<path style="fill:#F2EDE2;" d="M419.345,192.132c-0.213-2.396-0.299-4.8-0.319-7.205c-0.022-2.406,0.07-4.81,0.184-7.213
						c0.168-2.4,0.361-4.799,0.664-7.185c0.303-2.386,0.671-4.764,1.166-7.117c-0.223,2.394-0.464,4.781-0.661,7.17
						c-0.198,2.389-0.396,4.777-0.511,7.171c-0.169,2.39-0.251,4.785-0.337,7.181C419.445,187.33,419.404,189.729,419.345,192.132z"
						/>
				</g>
				<g>
					<path style="fill:#F2EDE2;" d="M437.677,164.092c0.504-3.657,1.133-7.294,1.826-10.919c0.691-3.626,1.494-7.23,2.318-10.828
						c0.875-3.586,1.776-7.167,2.781-10.718c1.006-3.551,2.075-7.085,3.264-10.579l-2.774,10.71
						c-0.903,3.574-1.807,7.146-2.63,10.738c-0.876,3.58-1.667,7.179-2.464,10.778L437.677,164.092z"/>
				</g>
				<g>
					<path style="fill:#F2EDE2;" d="M451.819,149.056c1.102-2.089,2.265-4.141,3.438-6.187c1.172-2.047,2.394-4.063,3.589-6.096
						c1.24-2.005,2.456-4.026,3.719-6.017c1.264-1.992,2.536-3.977,3.872-5.925c-1.101,2.09-2.264,4.141-3.437,6.188
						c-1.173,2.046-2.393,4.063-3.59,6.096c-1.242,2.005-2.456,4.026-3.72,6.017C454.426,145.122,453.153,147.108,451.819,149.056z"
						/>
				</g>
				<g>
					<path style="fill:#F2EDE2;" d="M451.697,161.779c2.111-2.04,4.23-4.066,6.317-6.123c2.086-2.058,4.174-4.112,6.199-6.229
						c2.064-2.079,4.067-4.216,6.07-6.355c2.004-2.138,3.975-4.307,5.963-6.468c-1.778,2.337-3.657,4.594-5.587,6.808
						c-1.93,2.214-3.943,4.354-5.975,6.474c-2.07,2.083-4.157,4.151-6.323,6.134C456.197,158.007,453.988,159.943,451.697,161.779z"
						/>
				</g>
				<g>
					<path style="fill:#F2EDE2;" d="M439.96,175.534c3.001-1.302,5.947-2.713,8.806-4.28c2.857-1.568,5.651-3.251,8.322-5.116
						c2.7-1.822,5.277-3.821,7.767-5.924c2.491-2.103,4.867-4.344,7.162-6.675c-2.093,2.517-4.393,4.862-6.828,7.058
						c-2.437,2.196-5.037,4.208-7.728,6.086c-2.721,1.833-5.533,3.538-8.459,5.02C446.077,173.184,443.061,174.486,439.96,175.534z"
						/>
				</g>
				<g>
					<path style="fill:#F2EDE2;" d="M428.775,201.084c1.871-1.098,3.727-2.22,5.567-3.365c1.845-1.138,3.678-2.293,5.493-3.474
						c3.629-2.365,7.217-4.793,10.71-7.354c3.523-2.518,6.952-5.167,10.332-7.876c1.69-1.355,3.36-2.735,5.017-4.132
						c1.663-1.39,3.309-2.802,4.936-4.236c-1.555,1.513-3.129,3.006-4.724,4.479c-1.615,1.45-3.253,2.875-4.907,4.281
						c-3.322,2.798-6.764,5.45-10.268,8.018c-3.535,2.524-7.129,4.967-10.826,7.247c-1.853,1.132-3.718,2.243-5.6,3.323
						C432.608,199.05,430.698,200.079,428.775,201.084z"/>
				</g>
				<g>
					<path style="fill:#F2EDE2;" d="M418.74,217.338c1.891-0.966,3.77-1.952,5.639-2.957c1.874-0.996,3.739-2.005,5.592-3.037
						c3.705-2.064,7.387-4.169,10.997-6.393c3.638-2.178,7.205-4.472,10.745-6.807c1.77-1.168,3.527-2.357,5.274-3.56
						c1.754-1.194,3.496-2.406,5.227-3.637c-1.665,1.317-3.345,2.617-5.039,3.9c-1.711,1.259-3.438,2.496-5.177,3.718
						c-3.488,2.428-7.068,4.723-10.688,6.951c-3.648,2.182-7.334,4.301-11.098,6.274c-1.886,0.979-3.78,1.942-5.687,2.878
						C422.605,215.578,420.677,216.468,418.74,217.338z"/>
				</g>
				<g>
					<path style="fill:#F2EDE2;" d="M416.688,226.996l5.066-2.94c1.676-0.995,3.357-1.98,4.995-3.034
						c1.667-1.009,3.292-2.082,4.922-3.151l4.87-3.254c-1.462,1.302-3.004,2.51-4.58,3.671c-1.577,1.16-3.215,2.236-4.863,3.294
						c-1.676,1.013-3.361,2.012-5.098,2.916C420.264,225.403,418.501,226.255,416.688,226.996z"/>
				</g>
				<g>
					<path style="fill:#F2EDE2;" d="M398.708,272.329c1.904-1.364,3.834-2.683,5.758-4.011l5.78-3.968l5.794-3.946
						c1.936-1.31,3.866-2.63,5.828-3.908c-1.8,1.499-3.658,2.924-5.534,4.322c-1.877,1.398-3.799,2.735-5.716,4.077
						c-1.948,1.298-3.889,2.606-5.874,3.846C402.76,269.981,400.758,271.195,398.708,272.329z"/>
				</g>
				<g>
					<path style="fill:#F2EDE2;" d="M392.475,287.09l5.905-4.397c1.964-1.469,3.941-2.917,5.879-4.419
						c1.97-1.459,3.901-2.969,5.845-4.462l5.834-4.492c-1.781,1.695-3.634,3.309-5.516,4.888c-1.883,1.579-3.822,3.088-5.765,4.592
						c-1.975,1.461-3.952,2.921-5.983,4.304C396.643,284.488,394.588,285.834,392.475,287.09z"/>
				</g>
				<g>
					<path style="fill:#F2EDE2;" d="M386.855,301.49c2.005-1.855,4.056-3.654,6.115-5.445c2.057-1.792,4.153-3.538,6.228-5.31
						c2.109-1.731,4.199-3.483,6.325-5.193c2.126-1.71,4.259-3.411,6.44-5.056c-2.004,1.855-4.056,3.655-6.114,5.446
						c-2.059,1.791-4.153,3.539-6.228,5.309c-2.11,1.729-4.199,3.483-6.326,5.192C391.167,298.142,389.034,299.844,386.855,301.49z"
						/>
				</g>
				<g>
					<path style="fill:#F2EDE2;" d="M383.282,326.492c1.385-1.518,2.821-2.983,4.264-4.441c1.442-1.459,2.925-2.875,4.385-4.314
						c1.497-1.401,2.975-2.822,4.491-4.204c1.516-1.381,3.04-2.755,4.614-4.076c-1.385,1.518-2.82,2.984-4.263,4.442
						c-1.443,1.458-2.925,2.875-4.386,4.313c-1.499,1.4-2.975,2.823-4.492,4.203C386.38,323.797,384.856,325.171,383.282,326.492z"
						/>
				</g>
				<g>
					<path style="fill:#F2EDE2;" d="M382.203,336.069c0.782-0.994,1.615-1.937,2.456-2.872c0.84-0.936,1.723-1.831,2.582-2.749
						c0.897-0.88,1.774-1.781,2.691-2.642c0.917-0.861,1.841-1.715,2.818-2.518c-0.781,0.994-1.615,1.937-2.456,2.872
						c-0.841,0.935-1.722,1.832-2.582,2.748c-0.899,0.879-1.774,1.781-2.692,2.641C384.104,334.411,383.179,335.265,382.203,336.069
						z"/>
				</g>
				<g>
					<path style="fill:#F2EDE2;" d="M377.927,353.592c2.348-2.347,4.745-4.64,7.15-6.926l7.269-6.797l7.372-6.684
						c2.476-2.208,4.96-4.408,7.493-6.553c-2.348,2.348-4.745,4.641-7.149,6.927l-7.27,6.796l-7.373,6.683
						C382.943,349.246,380.46,351.445,377.927,353.592z"/>
				</g>
				<g>
					<path style="fill:#F2EDE2;" d="M372.618,373.571c1.136-1.018,2.298-1.996,3.45-2.984c1.152-0.989,2.324-1.95,3.46-2.954
						l3.464-2.949c1.158-0.981,2.308-1.974,3.494-2.933c-0.995,1.156-2.061,2.245-3.152,3.308c-1.091,1.063-2.236,2.068-3.378,3.075
						c-1.177,0.967-2.349,1.94-3.573,2.847C375.161,371.891,373.917,372.771,372.618,373.571z"/>
				</g>
				<g>
					<path style="fill:#F2EDE2;" d="M375.146,378.493c2.356-1.689,4.713-3.367,7.039-5.086c2.325-1.72,4.647-3.443,6.911-5.241
						c2.297-1.756,4.538-3.583,6.774-5.417c2.237-1.834,4.441-3.708,6.657-5.578c-2.029,2.071-4.154,4.045-6.328,5.964
						c-2.174,1.919-4.426,3.749-6.698,5.551c-2.305,1.76-4.629,3.496-7.023,5.133C380.084,375.456,377.65,377.032,375.146,378.493z"
						/>
				</g>
				<g>
					<path style="fill:#F2EDE2;" d="M380.932,240.764c0.26,2.086,0.503,4.167,0.791,6.241c0.29,2.074,0.576,4.147,0.95,6.206
						c0.321,2.068,0.725,4.121,1.131,6.175c0.405,2.055,0.855,4.101,1.289,6.158c-0.699-1.983-1.274-4.007-1.785-6.047
						c-0.51-2.04-0.911-4.107-1.285-6.177c-0.321-2.079-0.619-4.162-0.802-6.258C381.038,244.968,380.92,242.867,380.932,240.764z"
						/>
				</g>
				<g>
					<path style="fill:#F2EDE2;" d="M365.569,262.839l1.614,7.546c0.546,2.51,1.09,5.019,1.775,7.489
						c0.633,2.484,1.402,4.929,2.284,7.333c0.881,2.406,1.916,4.755,3.099,7.043c-1.421-2.151-2.584-4.471-3.572-6.858
						c-0.988-2.389-1.76-4.861-2.448-7.349c-0.636-2.502-1.192-5.022-1.634-7.561C366.245,267.943,365.87,265.397,365.569,262.839z"
						/>
				</g>
				<g>
					<path style="fill:#F2EDE2;" d="M358.043,259.147l-0.36,3.345l-0.247,3.352l-0.168,3.354l-0.059,3.356
						c-0.01,4.475,0.216,8.95,0.765,13.389c0.496,4.445,1.31,8.851,2.358,13.201l0.834,3.252l0.94,3.224l1.016,3.204l1.124,3.171
						l-1.276-3.116l-1.172-3.159l-1.034-3.208l-0.926-3.243c-1.155-4.347-1.97-8.783-2.52-13.249
						c-0.497-4.472-0.734-8.976-0.615-13.473l0.149-3.369l0.263-3.36l0.408-3.345L358.043,259.147z"/>
				</g>
				<g>
					<path style="fill:#F2EDE2;" d="M353.205,319.952c0.503,1.547,0.989,3.09,1.517,4.619c0.529,1.527,1.053,3.054,1.66,4.551
						c0.557,1.516,1.192,3,1.827,4.486c0.635,1.487,1.312,2.957,1.977,4.441c-0.905-1.353-1.7-2.775-2.437-4.227
						c-0.736-1.453-1.372-2.954-1.982-4.464c-0.56-1.529-1.099-3.068-1.528-4.639C353.809,323.149,353.443,321.562,353.205,319.952z
						"/>
				</g>
				<g>
					<path style="fill:#F2EDE2;" d="M341.563,324.471c0.791,3.092,1.748,6.132,2.915,9.087c1.168,2.954,2.502,5.842,4.07,8.602
						c1.521,2.786,3.271,5.443,5.168,7.991c1.897,2.549,3.976,4.964,6.186,7.266c-2.402-2.105-4.593-4.452-6.589-6.956
						c-1.996-2.505-3.76-5.192-5.342-7.98c-1.535-2.813-2.891-5.727-3.967-8.745C342.928,330.72,342.087,327.621,341.563,324.471z"
						/>
				</g>
				<g>
					<path style="fill:#F2EDE2;" d="M339.106,356.026c0.993,1.776,2.011,3.527,3.107,5.227c1.096,1.699,2.23,3.373,3.472,4.966
						c1.2,1.625,2.503,3.171,3.844,4.684c1.341,1.515,2.752,2.968,4.192,4.405c-1.622-1.23-3.134-2.604-4.563-4.058
						c-1.43-1.455-2.745-3.021-3.998-4.632c-1.211-1.643-2.365-3.331-3.378-5.102C340.766,359.746,339.853,357.919,339.106,356.026z
						"/>
				</g>
			</g>
			<g style="opacity:0.31;">
				<path style="fill:#F2EDE2;" d="M485.202,129.564c-1.355-5.517-4.306-10.895-8.43-14.975c2.737,13.437,0.582,27.879-4.459,40.772
					c-6.345,16.226-16.889,30.426-27.709,44.082c-10.82,13.656-22.119,27.105-30.333,42.47
					c-6.352,11.881-10.744,24.706-14.587,37.618c5.34-3.227,10.68-6.454,16.02-9.681c-6.855,9.375-13.71,18.751-20.565,28.126
					c2.246-0.972,4.492-1.945,6.737-2.917c-6.196,21.277-13.791,42.147-22.721,62.429c3.236-2.06,6.473-4.12,9.709-6.18
					c-2.983,5.667-6.65,10.974-10.894,15.769c2.923-0.364,5.702-1.796,7.693-3.967c-3.355,10.246-8.594,19.866-15.343,28.272
					c6.009-3.202,13.893-7.616,17.061-10.336c16.136-13.851,28.345-31.903,35.1-51.899c-7.581,8.294-16.346,15.565-25.992,21.56
					c12.701-13.877,22.382-30.354,28.289-48.147c-7.048,8.19-14.096,16.38-21.144,24.57c8.659-28.367,20.355-55.755,34.847-81.599
					c1.653-2.949,3.346-5.881,5.061-8.805c-8.753,4.961-17.948,9.324-27.072,13.64c12.028-8.56,23.712-17.561,35.02-26.979
					c1.002-1.668,2.003-3.337,3.001-5.007c-8.839,4.77-17.941,9.106-27.264,12.983c12.577-9.368,24.83-19.134,36.744-29.268
					c7.717-13.793,14.597-27.943,19.053-43.113C485.812,149.495,487.608,139.357,485.202,129.564z"/>
			</g>
		</g>
		<g>
			
				<text transform="matrix(0.8381 0 0 1 152.2434 122.3221)" style="fill:#4C6E91; font-family:'Baskerville-BoldItalic'; font-size:65.5967px;">Poetry</text>
			<g>
				<path style="fill:#50191B;" d="M367.857,142.933c-8.831-0.723-17.669-1.298-26.514-1.749c-8.841-0.5-17.687-0.912-26.536-1.245
					c-17.697-0.665-35.398-1.204-53.107-1.417c-17.705-0.366-35.413-0.413-53.117-0.184c-8.852,0.118-17.702,0.344-26.546,0.739
					c-8.845,0.361-17.691,0.849-26.492,1.864c17.533-2.7,35.297-3.443,53.005-4.094c17.724-0.539,35.458-0.477,53.183-0.262
					c17.722,0.376,35.444,0.886,53.145,1.871c8.849,0.514,17.694,1.09,26.53,1.786C350.236,141.011,359.07,141.775,367.857,142.933z
					"/>
			</g>
			<g>
				<path style="fill:#50191B;" d="M368.355,138.448c-8.831-0.723-17.669-1.298-26.514-1.749
					c-8.841-0.499-17.687-0.912-26.536-1.245c-17.697-0.665-35.398-1.204-53.107-1.417c-17.705-0.366-35.413-0.413-53.117-0.184
					c-8.852,0.118-17.702,0.344-26.546,0.739c-8.845,0.361-17.69,0.849-26.492,1.864c17.533-2.7,35.297-3.443,53.005-4.094
					c17.724-0.539,35.458-0.477,53.182-0.262c17.722,0.376,35.444,0.886,53.145,1.871c8.849,0.514,17.694,1.09,26.53,1.786
					C350.735,136.526,359.568,137.29,368.355,138.448z"/>
			</g>
		</g>
	</g>
</g>
</svg>
